<svg xmlns="http://www.w3.org/2000/svg" xmlns:xlink="http://www.w3.org/1999/xlink" width="500" zoomAndPan="magnify" viewBox="0 0 375 187.499995" height="250" preserveAspectRatio="xMidYMid meet" version="1.0"><defs><g/><clipPath id="5fbb4714b2"><path d="M 21.738281 35.765625 L 51.40625 35.765625 L 51.40625 65.429688 L 21.738281 65.429688 Z M 21.738281 35.765625 " clip-rule="nonzero"/></clipPath><clipPath id="d8c4044a83"><path d="M 36.574219 35.765625 C 28.378906 35.765625 21.738281 42.40625 21.738281 50.597656 C 21.738281 58.789062 28.378906 65.429688 36.574219 65.429688 C 44.765625 65.429688 51.40625 58.789062 51.40625 50.597656 C 51.40625 42.40625 44.765625 35.765625 36.574219 35.765625 " clip-rule="nonzero"/></clipPath><clipPath id="728930d3c0"><path d="M 83.71875 35.765625 L 113.382812 35.765625 L 113.382812 65.429688 L 83.71875 65.429688 Z M 83.71875 35.765625 " clip-rule="nonzero"/></clipPath><clipPath id="cb442c32b5"><path d="M 98.550781 35.765625 C 90.359375 35.765625 83.71875 42.40625 83.71875 50.597656 C 83.71875 58.789062 90.359375 65.429688 98.550781 65.429688 C 106.742188 65.429688 113.382812 58.789062 113.382812 50.597656 C 113.382812 42.40625 106.742188 35.765625 98.550781 35.765625 " clip-rule="nonzero"/></clipPath><clipPath id="57d53d9e67"><path d="M 21.738281 44.78125 L 113.734375 44.78125 L 113.734375 124.5625 L 21.738281 124.5625 Z M 21.738281 44.78125 " clip-rule="nonzero"/></clipPath><clipPath id="892b621e4c"><path d="M 67.5625 44.78125 C 42.253906 44.78125 21.738281 62.578125 21.738281 84.535156 C 21.738281 106.488281 42.253906 124.285156 67.5625 124.285156 C 92.867188 124.285156 113.382812 106.488281 113.382812 84.535156 C 113.382812 62.578125 92.867188 44.78125 67.5625 44.78125 " clip-rule="nonzero"/></clipPath><clipPath id="7f289d2158"><path d="M 78 59 L 103 59 L 103 95 L 78 95 Z M 78 59 " clip-rule="nonzero"/></clipPath><clipPath id="7c5f97d6ff"><path d="M 74.429688 63.023438 L 97.238281 56.933594 L 106.476562 91.542969 L 83.667969 97.632812 Z M 74.429688 63.023438 " clip-rule="nonzero"/></clipPath><clipPath id="368fcdc85e"><path d="M 85.746094 60.003906 C 79.496094 61.671875 76.480469 70.710938 79.011719 80.195312 C 81.542969 89.679688 88.660156 96.011719 94.910156 94.34375 C 101.164062 92.675781 104.175781 83.636719 101.644531 74.152344 C 99.113281 64.671875 91.996094 58.335938 85.746094 60.003906 " clip-rule="nonzero"/></clipPath><clipPath id="0cb36812be"><path d="M 32 59 L 58 59 L 58 95 L 32 95 Z M 32 59 " clip-rule="nonzero"/></clipPath><clipPath id="fc76276060"><path d="M 38.394531 56.953125 L 61.191406 63.09375 L 51.871094 97.683594 L 29.074219 91.539062 Z M 38.394531 56.953125 " clip-rule="nonzero"/></clipPath><clipPath id="74a0758eb5"><path d="M 49.707031 60 C 43.460938 58.316406 36.324219 64.636719 33.773438 74.113281 C 31.21875 83.589844 34.210938 92.636719 40.457031 94.320312 C 46.703125 96.003906 53.839844 89.683594 56.390625 80.207031 C 58.945312 70.730469 55.953125 61.683594 49.707031 60 " clip-rule="nonzero"/></clipPath><clipPath id="f753afd188"><path d="M 58.96875 88.5625 L 76.308594 88.5625 L 76.308594 101 L 58.96875 101 Z M 58.96875 88.5625 " clip-rule="nonzero"/></clipPath><clipPath id="0b414e43f9"><path d="M 67.5625 88.5625 C 62.816406 88.5625 58.96875 91.34375 58.96875 94.777344 C 58.96875 98.210938 62.816406 100.992188 67.5625 100.992188 C 72.308594 100.992188 76.15625 98.210938 76.15625 94.777344 C 76.15625 91.34375 72.308594 88.5625 67.5625 88.5625 " clip-rule="nonzero"/></clipPath><clipPath id="4589ca85ee"><path d="M 85.957031 102.105469 L 113.828125 102.105469 L 113.828125 146.898438 L 85.957031 146.898438 Z M 85.957031 102.105469 " clip-rule="nonzero"/></clipPath><clipPath id="d509911bc2"><path d="M 89.699219 102.105469 L 109.644531 102.105469 C 111.710938 102.105469 113.382812 103.78125 113.382812 105.847656 L 113.382812 143.089844 C 113.382812 145.15625 111.710938 146.828125 109.644531 146.828125 L 89.699219 146.828125 C 87.632812 146.828125 85.957031 145.15625 85.957031 143.089844 L 85.957031 105.847656 C 85.957031 103.78125 87.632812 102.105469 89.699219 102.105469 " clip-rule="nonzero"/></clipPath><clipPath id="80a85507be"><path d="M 104.816406 105.050781 L 110.453125 105.050781 L 110.453125 110.691406 L 104.816406 110.691406 Z M 104.816406 105.050781 " clip-rule="nonzero"/></clipPath><clipPath id="83ad25f04c"><path d="M 107.632812 105.050781 C 106.078125 105.050781 104.816406 106.3125 104.816406 107.871094 C 104.816406 109.425781 106.078125 110.691406 107.632812 110.691406 C 109.191406 110.691406 110.453125 109.425781 110.453125 107.871094 C 110.453125 106.3125 109.191406 105.050781 107.632812 105.050781 " clip-rule="nonzero"/></clipPath><clipPath id="49c2846f93"><path d="M 104.816406 111.59375 L 110.453125 111.59375 L 110.453125 117.234375 L 104.816406 117.234375 Z M 104.816406 111.59375 " clip-rule="nonzero"/></clipPath><clipPath id="c5ed1e7d8d"><path d="M 107.632812 111.59375 C 106.078125 111.59375 104.816406 112.855469 104.816406 114.414062 C 104.816406 115.96875 106.078125 117.234375 107.632812 117.234375 C 109.191406 117.234375 110.453125 115.96875 110.453125 114.414062 C 110.453125 112.855469 109.191406 111.59375 107.632812 111.59375 " clip-rule="nonzero"/></clipPath><clipPath id="14677bc972"><path d="M 40.078125 70.410156 L 53.542969 70.410156 L 53.542969 83.875 L 40.078125 83.875 Z M 40.078125 70.410156 " clip-rule="nonzero"/></clipPath><clipPath id="ab500dc3b6"><path d="M 44.117188 77.160156 L 53.839844 77.160156 L 53.839844 86.882812 L 44.117188 86.882812 Z M 44.117188 77.160156 " clip-rule="nonzero"/></clipPath><clipPath id="5828fbc8a8"><path d="M 56.640625 106.273438 L 78.335938 106.273438 L 78.335938 118.242188 L 56.640625 118.242188 Z M 56.640625 106.273438 " clip-rule="nonzero"/></clipPath><clipPath id="f28633607c"><path d="M 81.515625 70.410156 L 94.980469 70.410156 L 94.980469 83.875 L 81.515625 83.875 Z M 81.515625 70.410156 " clip-rule="nonzero"/></clipPath><clipPath id="0117e3201e"><path d="M 85.554688 77.160156 L 95.277344 77.160156 L 95.277344 86.882812 L 85.554688 86.882812 Z M 85.554688 77.160156 " clip-rule="nonzero"/></clipPath></defs><g clip-path="url(#5fbb4714b2)"><g clip-path="url(#d8c4044a83)"><path fill="#03020c" d="M 21.738281 35.765625 L 51.40625 35.765625 L 51.40625 65.429688 L 21.738281 65.429688 Z M 21.738281 35.765625 " fill-opacity="1" fill-rule="nonzero"/></g></g><g clip-path="url(#728930d3c0)"><g clip-path="url(#cb442c32b5)"><path fill="#03020c" d="M 83.71875 35.765625 L 113.382812 35.765625 L 113.382812 65.429688 L 83.71875 65.429688 Z M 83.71875 35.765625 " fill-opacity="1" fill-rule="nonzero"/></g></g><g clip-path="url(#57d53d9e67)"><g clip-path="url(#892b621e4c)"><path fill="#f4f4f4" d="M 21.738281 44.78125 L 113.734375 44.78125 L 113.734375 124.5625 L 21.738281 124.5625 Z M 21.738281 44.78125 " fill-opacity="1" fill-rule="nonzero"/></g></g><g clip-path="url(#7f289d2158)"><g clip-path="url(#7c5f97d6ff)"><g clip-path="url(#368fcdc85e)"><path fill="#03020c" d="M 74.429688 63.023438 L 97.238281 56.933594 L 106.476562 91.542969 L 83.667969 97.632812 Z M 74.429688 63.023438 " fill-opacity="1" fill-rule="nonzero"/></g></g></g><g clip-path="url(#0cb36812be)"><g clip-path="url(#fc76276060)"><g clip-path="url(#74a0758eb5)"><path fill="#03020c" d="M 38.394531 56.953125 L 61.191406 63.09375 L 51.871094 97.683594 L 29.074219 91.539062 Z M 38.394531 56.953125 " fill-opacity="1" fill-rule="nonzero"/></g></g></g><g clip-path="url(#f753afd188)"><g clip-path="url(#0b414e43f9)"><path fill="#03020c" d="M 58.96875 88.5625 L 76.121094 88.5625 L 76.121094 100.917969 L 58.96875 100.917969 Z M 58.96875 88.5625 " fill-opacity="1" fill-rule="nonzero"/></g></g><g clip-path="url(#4589ca85ee)"><g clip-path="url(#d509911bc2)"><path fill="#03020c" d="M 85.957031 102.105469 L 113.828125 102.105469 L 113.828125 146.898438 L 85.957031 146.898438 Z M 85.957031 102.105469 " fill-opacity="1" fill-rule="nonzero"/></g></g><g clip-path="url(#80a85507be)"><g clip-path="url(#83ad25f04c)"><path fill="#f4f4f4" d="M 104.816406 105.050781 L 110.453125 105.050781 L 110.453125 110.691406 L 104.816406 110.691406 Z M 104.816406 105.050781 " fill-opacity="1" fill-rule="nonzero"/></g></g><g clip-path="url(#49c2846f93)"><g clip-path="url(#c5ed1e7d8d)"><path fill="#f4f4f4" d="M 104.816406 111.59375 L 110.453125 111.59375 L 110.453125 117.234375 L 104.816406 117.234375 Z M 104.816406 111.59375 " fill-opacity="1" fill-rule="nonzero"/></g></g><g clip-path="url(#14677bc972)"><path fill="#f4f4f4" d="M 53.542969 77.144531 C 53.542969 77.585938 53.5 78.023438 53.414062 78.457031 C 53.328125 78.890625 53.199219 79.3125 53.03125 79.71875 C 52.863281 80.128906 52.652344 80.515625 52.410156 80.882812 C 52.164062 81.25 51.882812 81.589844 51.570312 81.902344 C 51.257812 82.214844 50.917969 82.496094 50.550781 82.742188 C 50.183594 82.984375 49.796875 83.191406 49.386719 83.363281 C 48.980469 83.53125 48.558594 83.660156 48.125 83.746094 C 47.691406 83.832031 47.253906 83.875 46.8125 83.875 C 46.367188 83.875 45.929688 83.832031 45.496094 83.746094 C 45.0625 83.660156 44.644531 83.53125 44.234375 83.363281 C 43.828125 83.191406 43.4375 82.984375 43.070312 82.742188 C 42.703125 82.496094 42.363281 82.214844 42.050781 81.902344 C 41.738281 81.589844 41.460938 81.25 41.214844 80.882812 C 40.96875 80.515625 40.761719 80.128906 40.589844 79.71875 C 40.421875 79.3125 40.292969 78.890625 40.207031 78.457031 C 40.121094 78.023438 40.078125 77.585938 40.078125 77.144531 C 40.078125 76.699219 40.121094 76.261719 40.207031 75.828125 C 40.292969 75.394531 40.421875 74.976562 40.589844 74.566406 C 40.761719 74.15625 40.96875 73.769531 41.214844 73.402344 C 41.460938 73.035156 41.738281 72.695312 42.050781 72.382812 C 42.363281 72.070312 42.703125 71.789062 43.070312 71.546875 C 43.4375 71.300781 43.828125 71.09375 44.234375 70.921875 C 44.644531 70.753906 45.0625 70.625 45.496094 70.539062 C 45.929688 70.453125 46.367188 70.410156 46.8125 70.410156 C 47.253906 70.410156 47.691406 70.453125 48.125 70.539062 C 48.558594 70.625 48.980469 70.753906 49.386719 70.921875 C 49.796875 71.09375 50.183594 71.300781 50.550781 71.546875 C 50.917969 71.789062 51.257812 72.070312 51.570312 72.382812 C 51.882812 72.695312 52.164062 73.035156 52.410156 73.402344 C 52.652344 73.769531 52.863281 74.15625 53.03125 74.566406 C 53.199219 74.976562 53.328125 75.394531 53.414062 75.828125 C 53.5 76.261719 53.542969 76.699219 53.542969 77.144531 Z M 53.542969 77.144531 " fill-opacity="1" fill-rule="nonzero"/></g><g clip-path="url(#ab500dc3b6)"><path fill="#03020c" d="M 53.839844 82.019531 C 53.839844 82.339844 53.808594 82.65625 53.746094 82.96875 C 53.683594 83.28125 53.59375 83.585938 53.472656 83.882812 C 53.347656 84.175781 53.199219 84.457031 53.023438 84.722656 C 52.84375 84.988281 52.644531 85.234375 52.417969 85.457031 C 52.191406 85.683594 51.945312 85.886719 51.679688 86.0625 C 51.414062 86.242188 51.132812 86.390625 50.839844 86.511719 C 50.542969 86.636719 50.242188 86.726562 49.925781 86.789062 C 49.613281 86.851562 49.296875 86.882812 48.980469 86.882812 C 48.660156 86.882812 48.34375 86.851562 48.03125 86.789062 C 47.71875 86.726562 47.414062 86.636719 47.117188 86.511719 C 46.824219 86.390625 46.542969 86.242188 46.277344 86.0625 C 46.011719 85.886719 45.765625 85.683594 45.542969 85.457031 C 45.316406 85.234375 45.113281 84.988281 44.9375 84.722656 C 44.757812 84.457031 44.609375 84.175781 44.488281 83.882812 C 44.363281 83.585938 44.273438 83.28125 44.210938 82.96875 C 44.148438 82.65625 44.117188 82.339844 44.117188 82.019531 C 44.117188 81.703125 44.148438 81.386719 44.210938 81.074219 C 44.273438 80.757812 44.363281 80.457031 44.488281 80.160156 C 44.609375 79.867188 44.757812 79.585938 44.9375 79.320312 C 45.113281 79.054688 45.316406 78.808594 45.542969 78.582031 C 45.765625 78.355469 46.011719 78.15625 46.277344 77.976562 C 46.542969 77.800781 46.824219 77.652344 47.117188 77.527344 C 47.414062 77.40625 47.71875 77.316406 48.03125 77.253906 C 48.34375 77.191406 48.660156 77.160156 48.980469 77.160156 C 49.296875 77.160156 49.613281 77.191406 49.925781 77.253906 C 50.242188 77.316406 50.542969 77.40625 50.839844 77.527344 C 51.132812 77.652344 51.414062 77.800781 51.679688 77.976562 C 51.945312 78.15625 52.191406 78.355469 52.417969 78.582031 C 52.644531 78.808594 52.84375 79.054688 53.023438 79.320312 C 53.199219 79.585938 53.347656 79.867188 53.472656 80.160156 C 53.59375 80.457031 53.683594 80.757812 53.746094 81.074219 C 53.808594 81.386719 53.839844 81.703125 53.839844 82.019531 Z M 53.839844 82.019531 " fill-opacity="1" fill-rule="nonzero"/></g><g clip-path="url(#5828fbc8a8)"><path fill="#03020c" d="M 71.441406 117.296875 C 70.796875 117.765625 69.070312 117.933594 68.253906 117.457031 C 68.136719 117.386719 67.984375 117.425781 67.914062 117.546875 C 67.84375 117.667969 67.882812 117.820312 68.003906 117.890625 C 68.417969 118.132812 69.003906 118.242188 69.601562 118.242188 C 70.425781 118.242188 71.277344 118.035156 71.734375 117.703125 C 71.847656 117.621094 71.871094 117.464844 71.789062 117.351562 C 71.707031 117.238281 71.550781 117.214844 71.441406 117.296875 Z M 72.921875 115.511719 C 72.828125 115.410156 72.667969 115.40625 72.570312 115.5 C 70.785156 117.199219 68.441406 116.921875 66.839844 116.097656 C 66.71875 116.035156 66.566406 116.082031 66.503906 116.207031 C 66.441406 116.328125 66.488281 116.480469 66.613281 116.542969 C 67.429688 116.964844 68.421875 117.253906 69.449219 117.253906 C 70.628906 117.253906 71.859375 116.871094 72.914062 115.867188 C 73.011719 115.769531 73.015625 115.613281 72.921875 115.511719 Z M 76.542969 107.523438 C 75.160156 107.449219 73.507812 108.199219 71.589844 109.066406 C 67.46875 110.929688 62.800781 113.042969 58.6875 108.261719 C 58.554688 108.105469 58.316406 108.085938 58.160156 108.222656 C 58.003906 108.359375 57.988281 108.59375 58.121094 108.753906 C 60.832031 112.828125 64.519531 114.730469 67.382812 115.320312 C 69.09375 115.675781 70.507812 115.558594 71.238281 115.152344 C 71.945312 114.761719 72.460938 114.253906 72.859375 113.691406 C 74.355469 111.589844 74.246094 108.710938 76.503906 108.277344 C 76.707031 108.238281 76.886719 108.128906 76.898438 107.921875 C 76.910156 107.714844 76.75 107.535156 76.542969 107.523438 Z M 56.992188 108.574219 C 57.011719 108.539062 57.027344 108.503906 57.042969 108.472656 L 57.101562 108.375 C 57.132812 108.308594 57.179688 108.253906 57.21875 108.195312 C 57.304688 108.082031 57.390625 107.980469 57.488281 107.890625 C 57.585938 107.800781 57.6875 107.71875 57.796875 107.648438 C 58.019531 107.511719 58.265625 107.414062 58.539062 107.363281 L 58.589844 107.355469 L 58.644531 107.347656 C 58.679688 107.34375 58.714844 107.335938 58.75 107.332031 C 58.824219 107.332031 58.898438 107.320312 58.976562 107.324219 C 59.050781 107.324219 59.128906 107.328125 59.210938 107.332031 C 59.214844 107.332031 59.214844 107.332031 59.214844 107.332031 C 59.3125 107.339844 59.367188 107.222656 59.296875 107.15625 C 59.226562 107.09375 59.152344 107.042969 59.070312 106.996094 C 58.992188 106.945312 58.90625 106.914062 58.820312 106.878906 C 58.773438 106.863281 58.726562 106.855469 58.683594 106.839844 L 58.613281 106.824219 C 58.589844 106.820312 58.566406 106.816406 58.542969 106.8125 C 58.164062 106.757812 57.757812 106.851562 57.429688 107.058594 C 57.261719 107.164062 57.117188 107.300781 56.996094 107.449219 C 56.875 107.605469 56.785156 107.777344 56.722656 107.960938 C 56.710938 108.007812 56.699219 108.054688 56.691406 108.097656 C 56.683594 108.121094 56.679688 108.144531 56.675781 108.167969 C 56.671875 108.191406 56.667969 108.214844 56.667969 108.238281 C 56.660156 108.285156 56.65625 108.332031 56.652344 108.378906 C 56.652344 108.425781 56.652344 108.472656 56.65625 108.515625 C 56.664062 108.589844 56.675781 108.664062 56.691406 108.738281 C 56.71875 108.847656 56.871094 108.859375 56.914062 108.753906 C 56.9375 108.691406 56.964844 108.628906 56.992188 108.574219 Z M 77.664062 108.777344 C 77.671875 108.738281 77.679688 108.703125 77.683594 108.664062 L 77.691406 108.554688 C 77.703125 108.484375 77.695312 108.410156 77.699219 108.339844 C 77.695312 108.199219 77.683594 108.066406 77.65625 107.933594 C 77.628906 107.804688 77.59375 107.679688 77.542969 107.558594 C 77.441406 107.316406 77.300781 107.09375 77.105469 106.894531 L 77.070312 106.855469 L 77.03125 106.816406 C 77.003906 106.792969 76.980469 106.769531 76.953125 106.746094 C 76.894531 106.703125 76.839844 106.648438 76.773438 106.605469 C 76.714844 106.558594 76.648438 106.519531 76.578125 106.476562 C 76.574219 106.476562 76.574219 106.472656 76.574219 106.472656 C 76.492188 106.425781 76.515625 106.296875 76.613281 106.285156 C 76.703125 106.273438 76.792969 106.273438 76.886719 106.28125 C 76.980469 106.289062 77.070312 106.3125 77.160156 106.335938 C 77.207031 106.347656 77.25 106.367188 77.292969 106.382812 L 77.359375 106.410156 C 77.378906 106.421875 77.402344 106.433594 77.421875 106.445312 C 77.761719 106.617188 78.039062 106.929688 78.1875 107.292969 C 78.261719 107.472656 78.300781 107.667969 78.3125 107.863281 C 78.324219 108.058594 78.292969 108.253906 78.238281 108.4375 C 78.222656 108.480469 78.203125 108.527344 78.1875 108.570312 C 78.175781 108.589844 78.167969 108.613281 78.160156 108.636719 C 78.148438 108.65625 78.136719 108.675781 78.125 108.699219 C 78.101562 108.738281 78.078125 108.777344 78.054688 108.816406 C 78.027344 108.855469 78 108.894531 77.96875 108.929688 C 77.921875 108.984375 77.871094 109.039062 77.8125 109.085938 C 77.726562 109.160156 77.597656 109.082031 77.625 108.972656 C 77.640625 108.90625 77.65625 108.839844 77.664062 108.777344 " fill-opacity="1" fill-rule="nonzero"/></g><path fill="#e12020" d="M 72.191406 113.246094 C 71.859375 113.714844 71.429688 114.140625 70.839844 114.464844 C 70.230469 114.800781 69.050781 114.902344 67.625 114.605469 C 67.542969 114.523438 67.507812 114.402344 67.539062 114.285156 C 67.796875 113.300781 68.609375 112.503906 69.679688 112.320312 C 70.65625 112.152344 71.597656 112.535156 72.191406 113.246094 " fill-opacity="1" fill-rule="nonzero"/><g fill="#03020c" fill-opacity="1"><g transform="translate(128.405778, 106.750238)"><g><path d="M 3.609375 -36.109375 L 20.6875 -36.109375 C 24.644531 -36.109375 28.15625 -35.367188 31.21875 -33.890625 C 34.28125 -32.410156 36.648438 -30.3125 38.328125 -27.59375 C 40.015625 -24.882812 40.859375 -21.707031 40.859375 -18.0625 C 40.859375 -14.414062 40.015625 -11.234375 38.328125 -8.515625 C 36.648438 -5.796875 34.28125 -3.695312 31.21875 -2.21875 C 28.15625 -0.738281 24.644531 0 20.6875 0 L 3.609375 0 Z M 20.28125 -8.15625 C 23.375 -8.15625 25.859375 -9.03125 27.734375 -10.78125 C 29.609375 -12.539062 30.546875 -14.96875 30.546875 -18.0625 C 30.546875 -21.15625 29.609375 -23.578125 27.734375 -25.328125 C 25.859375 -27.085938 23.375 -27.96875 20.28125 -27.96875 L 13.828125 -27.96875 L 13.828125 -8.15625 Z M 20.28125 -8.15625 "/></g></g></g><g fill="#03020c" fill-opacity="1"><g transform="translate(171.021963, 106.750238)"><g><path d="M 3.140625 -27.96875 L 12.953125 -27.96875 L 12.953125 0 L 3.140625 0 Z M 8.046875 -31.0625 C 6.265625 -31.0625 4.820312 -31.554688 3.71875 -32.546875 C 2.613281 -33.546875 2.0625 -34.785156 2.0625 -36.265625 C 2.0625 -37.742188 2.613281 -38.984375 3.71875 -39.984375 C 4.820312 -40.984375 6.265625 -41.484375 8.046875 -41.484375 C 9.835938 -41.484375 11.28125 -41.007812 12.375 -40.0625 C 13.476562 -39.113281 14.03125 -37.898438 14.03125 -36.421875 C 14.03125 -34.878906 13.476562 -33.597656 12.375 -32.578125 C 11.28125 -31.566406 9.835938 -31.0625 8.046875 -31.0625 Z M 8.046875 -31.0625 "/></g></g></g><g fill="#03020c" fill-opacity="1"><g transform="translate(187.170707, 106.750238)"><g><path d="M 33.21875 -27.96875 L 33.21875 -5.109375 C 33.21875 0.0859375 31.804688 3.984375 28.984375 6.578125 C 26.171875 9.171875 22.113281 10.46875 16.8125 10.46875 C 14.0625 10.46875 11.484375 10.15625 9.078125 9.53125 C 6.671875 8.914062 4.625 8.007812 2.9375 6.8125 L 6.5 -0.046875 C 7.632812 0.878906 9.070312 1.609375 10.8125 2.140625 C 12.550781 2.671875 14.257812 2.9375 15.9375 2.9375 C 18.519531 2.9375 20.410156 2.367188 21.609375 1.234375 C 22.816406 0.0976562 23.421875 -1.582031 23.421875 -3.8125 L 23.421875 -4.75 C 21.523438 -2.539062 18.753906 -1.4375 15.109375 -1.4375 C 12.640625 -1.4375 10.351562 -1.992188 8.25 -3.109375 C 6.15625 -4.234375 4.488281 -5.816406 3.25 -7.859375 C 2.007812 -9.910156 1.390625 -12.28125 1.390625 -14.96875 C 1.390625 -17.613281 2.007812 -19.957031 3.25 -22 C 4.488281 -24.050781 6.15625 -25.632812 8.25 -26.75 C 10.351562 -27.863281 12.640625 -28.421875 15.109375 -28.421875 C 19.109375 -28.421875 22.035156 -27.132812 23.890625 -24.5625 L 23.890625 -27.96875 Z M 17.4375 -9.234375 C 19.1875 -9.234375 20.640625 -9.765625 21.796875 -10.828125 C 22.953125 -11.898438 23.53125 -13.28125 23.53125 -14.96875 C 23.53125 -16.644531 22.960938 -18.007812 21.828125 -19.0625 C 20.691406 -20.113281 19.226562 -20.640625 17.4375 -20.640625 C 15.644531 -20.640625 14.171875 -20.113281 13.015625 -19.0625 C 11.867188 -18.007812 11.296875 -16.644531 11.296875 -14.96875 C 11.296875 -13.28125 11.878906 -11.898438 13.046875 -10.828125 C 14.222656 -9.765625 15.6875 -9.234375 17.4375 -9.234375 Z M 17.4375 -9.234375 "/></g></g></g><g fill="#03020c" fill-opacity="1"><g transform="translate(223.544078, 106.750238)"><g><path d="M 3.609375 -36.109375 L 20.6875 -36.109375 C 24.644531 -36.109375 28.15625 -35.367188 31.21875 -33.890625 C 34.28125 -32.410156 36.648438 -30.3125 38.328125 -27.59375 C 40.015625 -24.882812 40.859375 -21.707031 40.859375 -18.0625 C 40.859375 -14.414062 40.015625 -11.234375 38.328125 -8.515625 C 36.648438 -5.796875 34.28125 -3.695312 31.21875 -2.21875 C 28.15625 -0.738281 24.644531 0 20.6875 0 L 3.609375 0 Z M 20.28125 -8.15625 C 23.375 -8.15625 25.859375 -9.03125 27.734375 -10.78125 C 29.609375 -12.539062 30.546875 -14.96875 30.546875 -18.0625 C 30.546875 -21.15625 29.609375 -23.578125 27.734375 -25.328125 C 25.859375 -27.085938 23.375 -27.96875 20.28125 -27.96875 L 13.828125 -27.96875 L 13.828125 -8.15625 Z M 20.28125 -8.15625 "/></g></g></g><g fill="#03020c" fill-opacity="1"><g transform="translate(266.160263, 106.750238)"><g><path d="M 32.5625 -27.96875 L 32.5625 0 L 23.21875 0 L 23.21875 -3 C 22.1875 -1.863281 20.945312 -1 19.5 -0.40625 C 18.050781 0.175781 16.519531 0.46875 14.90625 0.46875 C 11.300781 0.46875 8.421875 -0.597656 6.265625 -2.734375 C 4.117188 -4.867188 3.046875 -8.066406 3.046875 -12.328125 L 3.046875 -27.96875 L 12.84375 -27.96875 L 12.84375 -13.9375 C 12.84375 -11.832031 13.238281 -10.296875 14.03125 -9.328125 C 14.820312 -8.367188 15.972656 -7.890625 17.484375 -7.890625 C 19.035156 -7.890625 20.300781 -8.429688 21.28125 -9.515625 C 22.257812 -10.597656 22.75 -12.257812 22.75 -14.5 L 22.75 -27.96875 Z M 32.5625 -27.96875 "/></g></g></g><g fill="#03020c" fill-opacity="1"><g transform="translate(301.86292, 106.750238)"><g><path d="M 39.578125 -28.421875 C 43.015625 -28.421875 45.753906 -27.390625 47.796875 -25.328125 C 49.847656 -23.265625 50.875 -20.15625 50.875 -16 L 50.875 0 L 41.0625 0 L 41.0625 -14.390625 C 41.0625 -16.347656 40.691406 -17.789062 39.953125 -18.71875 C 39.210938 -19.65625 38.175781 -20.125 36.84375 -20.125 C 35.363281 -20.125 34.175781 -19.609375 33.28125 -18.578125 C 32.382812 -17.546875 31.9375 -15.976562 31.9375 -13.875 L 31.9375 0 L 22.140625 0 L 22.140625 -14.390625 C 22.140625 -18.210938 20.726562 -20.125 17.90625 -20.125 C 16.394531 -20.125 15.191406 -19.609375 14.296875 -18.578125 C 13.398438 -17.546875 12.953125 -15.976562 12.953125 -13.875 L 12.953125 0 L 3.140625 0 L 3.140625 -27.96875 L 12.484375 -27.96875 L 12.484375 -25.015625 C 13.515625 -26.148438 14.742188 -27 16.171875 -27.5625 C 17.597656 -28.132812 19.15625 -28.421875 20.84375 -28.421875 C 22.800781 -28.421875 24.550781 -28.0625 26.09375 -27.34375 C 27.644531 -26.625 28.90625 -25.523438 29.875 -24.046875 C 30.976562 -25.453125 32.367188 -26.53125 34.046875 -27.28125 C 35.734375 -28.039062 37.578125 -28.421875 39.578125 -28.421875 Z M 39.578125 -28.421875 "/></g></g></g><g clip-path="url(#f28633607c)"><path fill="#f4f4f4" d="M 94.980469 77.144531 C 94.980469 77.585938 94.9375 78.023438 94.851562 78.457031 C 94.765625 78.890625 94.636719 79.3125 94.46875 79.71875 C 94.300781 80.128906 94.089844 80.515625 93.847656 80.882812 C 93.601562 81.25 93.320312 81.589844 93.007812 81.902344 C 92.695312 82.214844 92.355469 82.496094 91.988281 82.742188 C 91.621094 82.984375 91.234375 83.191406 90.824219 83.363281 C 90.417969 83.53125 89.996094 83.660156 89.5625 83.746094 C 89.128906 83.832031 88.691406 83.875 88.25 83.875 C 87.804688 83.875 87.367188 83.832031 86.933594 83.746094 C 86.5 83.660156 86.082031 83.53125 85.671875 83.363281 C 85.265625 83.191406 84.875 82.984375 84.507812 82.742188 C 84.140625 82.496094 83.800781 82.214844 83.488281 81.902344 C 83.175781 81.589844 82.898438 81.25 82.652344 80.882812 C 82.40625 80.515625 82.199219 80.128906 82.027344 79.71875 C 81.859375 79.3125 81.730469 78.890625 81.644531 78.457031 C 81.558594 78.023438 81.515625 77.585938 81.515625 77.144531 C 81.515625 76.699219 81.558594 76.261719 81.644531 75.828125 C 81.730469 75.394531 81.859375 74.976562 82.027344 74.566406 C 82.199219 74.15625 82.40625 73.769531 82.652344 73.402344 C 82.898438 73.035156 83.175781 72.695312 83.488281 72.382812 C 83.800781 72.070312 84.140625 71.789062 84.507812 71.546875 C 84.875 71.300781 85.265625 71.09375 85.671875 70.921875 C 86.082031 70.753906 86.5 70.625 86.933594 70.539062 C 87.367188 70.453125 87.804688 70.410156 88.25 70.410156 C 88.691406 70.410156 89.128906 70.453125 89.5625 70.539062 C 89.996094 70.625 90.417969 70.753906 90.824219 70.921875 C 91.234375 71.09375 91.621094 71.300781 91.988281 71.546875 C 92.355469 71.789062 92.695312 72.070312 93.007812 72.382812 C 93.320312 72.695312 93.601562 73.035156 93.847656 73.402344 C 94.089844 73.769531 94.300781 74.15625 94.46875 74.566406 C 94.636719 74.976562 94.765625 75.394531 94.851562 75.828125 C 94.9375 76.261719 94.980469 76.699219 94.980469 77.144531 Z M 94.980469 77.144531 " fill-opacity="1" fill-rule="nonzero"/></g><g clip-path="url(#0117e3201e)"><path fill="#03020c" d="M 95.277344 82.019531 C 95.277344 82.339844 95.246094 82.65625 95.183594 82.96875 C 95.121094 83.28125 95.03125 83.585938 94.910156 83.882812 C 94.785156 84.175781 94.636719 84.457031 94.460938 84.722656 C 94.28125 84.988281 94.082031 85.234375 93.855469 85.457031 C 93.628906 85.683594 93.382812 85.886719 93.117188 86.0625 C 92.851562 86.242188 92.570312 86.390625 92.277344 86.511719 C 91.980469 86.636719 91.679688 86.726562 91.363281 86.789062 C 91.050781 86.851562 90.734375 86.882812 90.417969 86.882812 C 90.097656 86.882812 89.78125 86.851562 89.46875 86.789062 C 89.15625 86.726562 88.851562 86.636719 88.554688 86.511719 C 88.261719 86.390625 87.980469 86.242188 87.714844 86.0625 C 87.449219 85.886719 87.203125 85.683594 86.980469 85.457031 C 86.753906 85.234375 86.550781 84.988281 86.375 84.722656 C 86.195312 84.457031 86.046875 84.175781 85.925781 83.882812 C 85.800781 83.585938 85.710938 83.28125 85.648438 82.96875 C 85.585938 82.65625 85.554688 82.339844 85.554688 82.019531 C 85.554688 81.703125 85.585938 81.386719 85.648438 81.074219 C 85.710938 80.757812 85.800781 80.457031 85.925781 80.160156 C 86.046875 79.867188 86.195312 79.585938 86.375 79.320312 C 86.550781 79.054688 86.753906 78.808594 86.980469 78.582031 C 87.203125 78.355469 87.449219 78.15625 87.714844 77.976562 C 87.980469 77.800781 88.261719 77.652344 88.554688 77.527344 C 88.851562 77.40625 89.15625 77.316406 89.46875 77.253906 C 89.78125 77.191406 90.097656 77.160156 90.417969 77.160156 C 90.734375 77.160156 91.050781 77.191406 91.363281 77.253906 C 91.679688 77.316406 91.980469 77.40625 92.277344 77.527344 C 92.570312 77.652344 92.851562 77.800781 93.117188 77.976562 C 93.382812 78.15625 93.628906 78.355469 93.855469 78.582031 C 94.082031 78.808594 94.28125 79.054688 94.460938 79.320312 C 94.636719 79.585938 94.785156 79.867188 94.910156 80.160156 C 95.03125 80.457031 95.121094 80.757812 95.183594 81.074219 C 95.246094 81.386719 95.277344 81.703125 95.277344 82.019531 Z M 95.277344 82.019531 " fill-opacity="1" fill-rule="nonzero"/></g></svg>