<svg xmlns="http://www.w3.org/2000/svg" xmlns:xlink="http://www.w3.org/1999/xlink" width="500" zoomAndPan="magnify" viewBox="0 0 375 187.499995" height="250" preserveAspectRatio="xMidYMid meet" version="1.0"><defs><g/><clipPath id="1f40002cd5"><path d="M 19.113281 35.765625 L 48.78125 35.765625 L 48.78125 65.429688 L 19.113281 65.429688 Z M 19.113281 35.765625 " clip-rule="nonzero"/></clipPath><clipPath id="05e090de6d"><path d="M 33.945312 35.765625 C 25.753906 35.765625 19.113281 42.40625 19.113281 50.597656 C 19.113281 58.789062 25.753906 65.429688 33.945312 65.429688 C 42.140625 65.429688 48.78125 58.789062 48.78125 50.597656 C 48.78125 42.40625 42.140625 35.765625 33.945312 35.765625 " clip-rule="nonzero"/></clipPath><clipPath id="c48b609ad3"><path d="M 86.34375 35.765625 L 116.007812 35.765625 L 116.007812 65.429688 L 86.34375 65.429688 Z M 86.34375 35.765625 " clip-rule="nonzero"/></clipPath><clipPath id="ae8eda1688"><path d="M 101.175781 35.765625 C 92.984375 35.765625 86.34375 42.40625 86.34375 50.597656 C 86.34375 58.789062 92.984375 65.429688 101.175781 65.429688 C 109.367188 65.429688 116.007812 58.789062 116.007812 50.597656 C 116.007812 42.40625 109.367188 35.765625 101.175781 35.765625 " clip-rule="nonzero"/></clipPath><clipPath id="d34b145141"><path d="M 20.507812 43.457031 L 114.945312 43.457031 L 114.945312 121.613281 L 20.507812 121.613281 Z M 20.507812 43.457031 " clip-rule="nonzero"/></clipPath><clipPath id="30d7e42947"><path d="M 67.5625 43.457031 C 41.574219 43.457031 20.507812 60.90625 20.507812 82.433594 C 20.507812 103.960938 41.574219 121.410156 67.5625 121.410156 C 93.550781 121.410156 114.617188 103.960938 114.617188 82.433594 C 114.617188 60.90625 93.550781 43.457031 67.5625 43.457031 " clip-rule="nonzero"/></clipPath><clipPath id="82f07d5e48"><path d="M 78 59 L 103 59 L 103 95 L 78 95 Z M 78 59 " clip-rule="nonzero"/></clipPath><clipPath id="ce2c6c29f0"><path d="M 74.429688 63.023438 L 97.238281 56.933594 L 106.476562 91.542969 L 83.667969 97.632812 Z M 74.429688 63.023438 " clip-rule="nonzero"/></clipPath><clipPath id="4eeb16ad44"><path d="M 85.746094 60.003906 C 79.496094 61.671875 76.480469 70.710938 79.011719 80.195312 C 81.542969 89.679688 88.660156 96.011719 94.910156 94.34375 C 101.164062 92.675781 104.175781 83.636719 101.644531 74.152344 C 99.113281 64.671875 91.996094 58.335938 85.746094 60.003906 " clip-rule="nonzero"/></clipPath><clipPath id="ca0b3ee09a"><path d="M 32 59 L 58 59 L 58 95 L 32 95 Z M 32 59 " clip-rule="nonzero"/></clipPath><clipPath id="37a7fb1505"><path d="M 38.394531 56.953125 L 61.191406 63.09375 L 51.871094 97.683594 L 29.074219 91.539062 Z M 38.394531 56.953125 " clip-rule="nonzero"/></clipPath><clipPath id="31e3d8c87f"><path d="M 49.707031 60 C 43.460938 58.316406 36.324219 64.636719 33.773438 74.113281 C 31.21875 83.589844 34.210938 92.636719 40.457031 94.320312 C 46.703125 96.003906 53.839844 89.683594 56.390625 80.207031 C 58.945312 70.730469 55.953125 61.683594 49.707031 60 " clip-rule="nonzero"/></clipPath><clipPath id="9477fd5b2a"><path d="M 58.96875 88.5625 L 76.308594 88.5625 L 76.308594 101 L 58.96875 101 Z M 58.96875 88.5625 " clip-rule="nonzero"/></clipPath><clipPath id="3551efa5b1"><path d="M 67.5625 88.5625 C 62.816406 88.5625 58.96875 91.34375 58.96875 94.777344 C 58.96875 98.210938 62.816406 100.992188 67.5625 100.992188 C 72.308594 100.992188 76.15625 98.210938 76.15625 94.777344 C 76.15625 91.34375 72.308594 88.5625 67.5625 88.5625 " clip-rule="nonzero"/></clipPath><clipPath id="355f8fa20b"><path d="M 86.34375 106.515625 L 114 106.515625 L 114 151.304688 L 86.34375 151.304688 Z M 86.34375 106.515625 " clip-rule="nonzero"/></clipPath><clipPath id="43735bd58d"><path d="M 90.082031 106.515625 L 110.027344 106.515625 C 112.09375 106.515625 113.769531 108.1875 113.769531 110.253906 L 113.769531 147.496094 C 113.769531 149.5625 112.09375 151.238281 110.027344 151.238281 L 90.082031 151.238281 C 88.019531 151.238281 86.34375 149.5625 86.34375 147.496094 L 86.34375 110.253906 C 86.34375 108.1875 88.019531 106.515625 90.082031 106.515625 " clip-rule="nonzero"/></clipPath><clipPath id="553614522e"><path d="M 105.199219 109.457031 L 110.839844 109.457031 L 110.839844 115.097656 L 105.199219 115.097656 Z M 105.199219 109.457031 " clip-rule="nonzero"/></clipPath><clipPath id="fe44e593fd"><path d="M 108.019531 109.457031 C 106.460938 109.457031 105.199219 110.722656 105.199219 112.277344 C 105.199219 113.835938 106.460938 115.097656 108.019531 115.097656 C 109.578125 115.097656 110.839844 113.835938 110.839844 112.277344 C 110.839844 110.722656 109.578125 109.457031 108.019531 109.457031 " clip-rule="nonzero"/></clipPath><clipPath id="42574a98b3"><path d="M 105.199219 116 L 110.839844 116 L 110.839844 121.640625 L 105.199219 121.640625 Z M 105.199219 116 " clip-rule="nonzero"/></clipPath><clipPath id="d75aae12f7"><path d="M 108.019531 116 C 106.460938 116 105.199219 117.265625 105.199219 118.820312 C 105.199219 120.378906 106.460938 121.640625 108.019531 121.640625 C 109.578125 121.640625 110.839844 120.378906 110.839844 118.820312 C 110.839844 117.265625 109.578125 116 108.019531 116 " clip-rule="nonzero"/></clipPath><clipPath id="a32a68045b"><path d="M 61.0625 110.710938 L 74.089844 110.710938 L 74.089844 114.621094 L 61.0625 114.621094 Z M 61.0625 110.710938 " clip-rule="nonzero"/></clipPath><clipPath id="554cd13f11"><path d="M 67.5625 110.710938 C 63.972656 110.710938 61.0625 111.558594 61.0625 112.605469 C 61.0625 113.652344 63.972656 114.5 67.5625 114.5 C 71.152344 114.5 74.0625 113.652344 74.0625 112.605469 C 74.0625 111.558594 71.152344 110.710938 67.5625 110.710938 " clip-rule="nonzero"/></clipPath></defs><g clip-path="url(#1f40002cd5)"><g clip-path="url(#05e090de6d)"><path fill="#050119" d="M 19.113281 35.765625 L 48.78125 35.765625 L 48.78125 65.429688 L 19.113281 65.429688 Z M 19.113281 35.765625 " fill-opacity="1" fill-rule="nonzero"/></g></g><g clip-path="url(#c48b609ad3)"><g clip-path="url(#ae8eda1688)"><path fill="#050119" d="M 86.34375 35.765625 L 116.007812 35.765625 L 116.007812 65.429688 L 86.34375 65.429688 Z M 86.34375 35.765625 " fill-opacity="1" fill-rule="nonzero"/></g></g><g clip-path="url(#d34b145141)"><g clip-path="url(#30d7e42947)"><path fill="#f4f4f4" d="M 20.507812 43.457031 L 114.945312 43.457031 L 114.945312 121.613281 L 20.507812 121.613281 Z M 20.507812 43.457031 " fill-opacity="1" fill-rule="nonzero"/></g></g><g clip-path="url(#82f07d5e48)"><g clip-path="url(#ce2c6c29f0)"><g clip-path="url(#4eeb16ad44)"><path fill="#050119" d="M 74.429688 63.023438 L 97.238281 56.933594 L 106.476562 91.542969 L 83.667969 97.632812 Z M 74.429688 63.023438 " fill-opacity="1" fill-rule="nonzero"/></g></g></g><g clip-path="url(#ca0b3ee09a)"><g clip-path="url(#37a7fb1505)"><g clip-path="url(#31e3d8c87f)"><path fill="#050119" d="M 38.394531 56.953125 L 61.191406 63.09375 L 51.871094 97.683594 L 29.074219 91.539062 Z M 38.394531 56.953125 " fill-opacity="1" fill-rule="nonzero"/></g></g></g><g clip-path="url(#9477fd5b2a)"><g clip-path="url(#3551efa5b1)"><path fill="#050119" d="M 58.96875 88.5625 L 76.121094 88.5625 L 76.121094 100.917969 L 58.96875 100.917969 Z M 58.96875 88.5625 " fill-opacity="1" fill-rule="nonzero"/></g></g><g clip-path="url(#355f8fa20b)"><g clip-path="url(#43735bd58d)"><path fill="#050119" d="M 86.34375 106.515625 L 114.210938 106.515625 L 114.210938 151.304688 L 86.34375 151.304688 Z M 86.34375 106.515625 " fill-opacity="1" fill-rule="nonzero"/></g></g><g clip-path="url(#553614522e)"><g clip-path="url(#fe44e593fd)"><path fill="#f4f4f4" d="M 105.199219 109.457031 L 110.839844 109.457031 L 110.839844 115.097656 L 105.199219 115.097656 Z M 105.199219 109.457031 " fill-opacity="1" fill-rule="nonzero"/></g></g><g clip-path="url(#42574a98b3)"><g clip-path="url(#d75aae12f7)"><path fill="#f4f4f4" d="M 105.199219 116 L 110.839844 116 L 110.839844 121.640625 L 105.199219 121.640625 Z M 105.199219 116 " fill-opacity="1" fill-rule="nonzero"/></g></g><g fill="#050119" fill-opacity="1"><g transform="translate(128.405778, 106.750238)"><g><path d="M 3.609375 -36.109375 L 20.6875 -36.109375 C 24.644531 -36.109375 28.15625 -35.367188 31.21875 -33.890625 C 34.28125 -32.410156 36.648438 -30.3125 38.328125 -27.59375 C 40.015625 -24.882812 40.859375 -21.707031 40.859375 -18.0625 C 40.859375 -14.414062 40.015625 -11.234375 38.328125 -8.515625 C 36.648438 -5.796875 34.28125 -3.695312 31.21875 -2.21875 C 28.15625 -0.738281 24.644531 0 20.6875 0 L 3.609375 0 Z M 20.28125 -8.15625 C 23.375 -8.15625 25.859375 -9.03125 27.734375 -10.78125 C 29.609375 -12.539062 30.546875 -14.96875 30.546875 -18.0625 C 30.546875 -21.15625 29.609375 -23.578125 27.734375 -25.328125 C 25.859375 -27.085938 23.375 -27.96875 20.28125 -27.96875 L 13.828125 -27.96875 L 13.828125 -8.15625 Z M 20.28125 -8.15625 "/></g></g></g><g fill="#050119" fill-opacity="1"><g transform="translate(171.021963, 106.750238)"><g><path d="M 3.140625 -27.96875 L 12.953125 -27.96875 L 12.953125 0 L 3.140625 0 Z M 8.046875 -31.0625 C 6.265625 -31.0625 4.820312 -31.554688 3.71875 -32.546875 C 2.613281 -33.546875 2.0625 -34.785156 2.0625 -36.265625 C 2.0625 -37.742188 2.613281 -38.984375 3.71875 -39.984375 C 4.820312 -40.984375 6.265625 -41.484375 8.046875 -41.484375 C 9.835938 -41.484375 11.28125 -41.007812 12.375 -40.0625 C 13.476562 -39.113281 14.03125 -37.898438 14.03125 -36.421875 C 14.03125 -34.878906 13.476562 -33.597656 12.375 -32.578125 C 11.28125 -31.566406 9.835938 -31.0625 8.046875 -31.0625 Z M 8.046875 -31.0625 "/></g></g></g><g fill="#050119" fill-opacity="1"><g transform="translate(187.170707, 106.750238)"><g><path d="M 33.21875 -27.96875 L 33.21875 -5.109375 C 33.21875 0.0859375 31.804688 3.984375 28.984375 6.578125 C 26.171875 9.171875 22.113281 10.46875 16.8125 10.46875 C 14.0625 10.46875 11.484375 10.15625 9.078125 9.53125 C 6.671875 8.914062 4.625 8.007812 2.9375 6.8125 L 6.5 -0.046875 C 7.632812 0.878906 9.070312 1.609375 10.8125 2.140625 C 12.550781 2.671875 14.257812 2.9375 15.9375 2.9375 C 18.519531 2.9375 20.410156 2.367188 21.609375 1.234375 C 22.816406 0.0976562 23.421875 -1.582031 23.421875 -3.8125 L 23.421875 -4.75 C 21.523438 -2.539062 18.753906 -1.4375 15.109375 -1.4375 C 12.640625 -1.4375 10.351562 -1.992188 8.25 -3.109375 C 6.15625 -4.234375 4.488281 -5.816406 3.25 -7.859375 C 2.007812 -9.910156 1.390625 -12.28125 1.390625 -14.96875 C 1.390625 -17.613281 2.007812 -19.957031 3.25 -22 C 4.488281 -24.050781 6.15625 -25.632812 8.25 -26.75 C 10.351562 -27.863281 12.640625 -28.421875 15.109375 -28.421875 C 19.109375 -28.421875 22.035156 -27.132812 23.890625 -24.5625 L 23.890625 -27.96875 Z M 17.4375 -9.234375 C 19.1875 -9.234375 20.640625 -9.765625 21.796875 -10.828125 C 22.953125 -11.898438 23.53125 -13.28125 23.53125 -14.96875 C 23.53125 -16.644531 22.960938 -18.007812 21.828125 -19.0625 C 20.691406 -20.113281 19.226562 -20.640625 17.4375 -20.640625 C 15.644531 -20.640625 14.171875 -20.113281 13.015625 -19.0625 C 11.867188 -18.007812 11.296875 -16.644531 11.296875 -14.96875 C 11.296875 -13.28125 11.878906 -11.898438 13.046875 -10.828125 C 14.222656 -9.765625 15.6875 -9.234375 17.4375 -9.234375 Z M 17.4375 -9.234375 "/></g></g></g><g fill="#050119" fill-opacity="1"><g transform="translate(223.544078, 106.750238)"><g><path d="M 3.609375 -36.109375 L 20.6875 -36.109375 C 24.644531 -36.109375 28.15625 -35.367188 31.21875 -33.890625 C 34.28125 -32.410156 36.648438 -30.3125 38.328125 -27.59375 C 40.015625 -24.882812 40.859375 -21.707031 40.859375 -18.0625 C 40.859375 -14.414062 40.015625 -11.234375 38.328125 -8.515625 C 36.648438 -5.796875 34.28125 -3.695312 31.21875 -2.21875 C 28.15625 -0.738281 24.644531 0 20.6875 0 L 3.609375 0 Z M 20.28125 -8.15625 C 23.375 -8.15625 25.859375 -9.03125 27.734375 -10.78125 C 29.609375 -12.539062 30.546875 -14.96875 30.546875 -18.0625 C 30.546875 -21.15625 29.609375 -23.578125 27.734375 -25.328125 C 25.859375 -27.085938 23.375 -27.96875 20.28125 -27.96875 L 13.828125 -27.96875 L 13.828125 -8.15625 Z M 20.28125 -8.15625 "/></g></g></g><g fill="#050119" fill-opacity="1"><g transform="translate(266.160263, 106.750238)"><g><path d="M 32.5625 -27.96875 L 32.5625 0 L 23.21875 0 L 23.21875 -3 C 22.1875 -1.863281 20.945312 -1 19.5 -0.40625 C 18.050781 0.175781 16.519531 0.46875 14.90625 0.46875 C 11.300781 0.46875 8.421875 -0.597656 6.265625 -2.734375 C 4.117188 -4.867188 3.046875 -8.066406 3.046875 -12.328125 L 3.046875 -27.96875 L 12.84375 -27.96875 L 12.84375 -13.9375 C 12.84375 -11.832031 13.238281 -10.296875 14.03125 -9.328125 C 14.820312 -8.367188 15.972656 -7.890625 17.484375 -7.890625 C 19.035156 -7.890625 20.300781 -8.429688 21.28125 -9.515625 C 22.257812 -10.597656 22.75 -12.257812 22.75 -14.5 L 22.75 -27.96875 Z M 32.5625 -27.96875 "/></g></g></g><g fill="#050119" fill-opacity="1"><g transform="translate(301.86292, 106.750238)"><g><path d="M 39.578125 -28.421875 C 43.015625 -28.421875 45.753906 -27.390625 47.796875 -25.328125 C 49.847656 -23.265625 50.875 -20.15625 50.875 -16 L 50.875 0 L 41.0625 0 L 41.0625 -14.390625 C 41.0625 -16.347656 40.691406 -17.789062 39.953125 -18.71875 C 39.210938 -19.65625 38.175781 -20.125 36.84375 -20.125 C 35.363281 -20.125 34.175781 -19.609375 33.28125 -18.578125 C 32.382812 -17.546875 31.9375 -15.976562 31.9375 -13.875 L 31.9375 0 L 22.140625 0 L 22.140625 -14.390625 C 22.140625 -18.210938 20.726562 -20.125 17.90625 -20.125 C 16.394531 -20.125 15.191406 -19.609375 14.296875 -18.578125 C 13.398438 -17.546875 12.953125 -15.976562 12.953125 -13.875 L 12.953125 0 L 3.140625 0 L 3.140625 -27.96875 L 12.484375 -27.96875 L 12.484375 -25.015625 C 13.515625 -26.148438 14.742188 -27 16.171875 -27.5625 C 17.597656 -28.132812 19.15625 -28.421875 20.84375 -28.421875 C 22.800781 -28.421875 24.550781 -28.0625 26.09375 -27.34375 C 27.644531 -26.625 28.90625 -25.523438 29.875 -24.046875 C 30.976562 -25.453125 32.367188 -26.53125 34.046875 -27.28125 C 35.734375 -28.039062 37.578125 -28.421875 39.578125 -28.421875 Z M 39.578125 -28.421875 "/></g></g></g><path stroke-linecap="butt" transform="matrix(0.697604, -0.260573, 0.261736, 0.700718, 71.332481, 111.89874)" fill="none" stroke-linejoin="miter" d="M 0.000258891 0.997525 L 7.042817 1.001902 " stroke="#050119" stroke-width="2" stroke-opacity="1" stroke-miterlimit="4"/><path stroke-linecap="butt" transform="matrix(0.698636, 0.257794, -0.258945, 0.701755, 58.850308, 110.075967)" fill="none" stroke-linejoin="miter" d="M -0.00208962 1.00023 L 7.043009 1.000547 " stroke="#050119" stroke-width="2" stroke-opacity="1" stroke-miterlimit="4"/><g clip-path="url(#a32a68045b)"><g clip-path="url(#554cd13f11)"><path fill="#6b1212" d="M 61.0625 110.710938 L 74.089844 110.710938 L 74.089844 114.621094 L 61.0625 114.621094 Z M 61.0625 110.710938 " fill-opacity="1" fill-rule="nonzero"/></g></g></svg>