<svg xmlns="http://www.w3.org/2000/svg" xmlns:xlink="http://www.w3.org/1999/xlink" width="500" zoomAndPan="magnify" viewBox="0 0 375 374.999991" height="500" preserveAspectRatio="xMidYMid meet" version="1.0"><defs><g/><clipPath id="55b22b4d07"><path d="M 18.707031 129.609375 L 48.453125 129.609375 L 48.453125 159.355469 L 18.707031 159.355469 Z M 18.707031 129.609375 " clip-rule="nonzero"/></clipPath><clipPath id="a8c5e847e6"><path d="M 33.582031 129.609375 C 25.367188 129.609375 18.707031 136.269531 18.707031 144.480469 C 18.707031 152.695312 25.367188 159.355469 33.582031 159.355469 C 41.792969 159.355469 48.453125 152.695312 48.453125 144.480469 C 48.453125 136.269531 41.792969 129.609375 33.582031 129.609375 " clip-rule="nonzero"/></clipPath><clipPath id="0ad3484e82"><path d="M 86.117188 129.609375 L 115.859375 129.609375 L 115.859375 159.355469 L 86.117188 159.355469 Z M 86.117188 129.609375 " clip-rule="nonzero"/></clipPath><clipPath id="ea82cde101"><path d="M 100.988281 129.609375 C 92.773438 129.609375 86.117188 136.269531 86.117188 144.480469 C 86.117188 152.695312 92.773438 159.355469 100.988281 159.355469 C 109.203125 159.355469 115.859375 152.695312 115.859375 144.480469 C 115.859375 136.269531 109.203125 129.609375 100.988281 129.609375 " clip-rule="nonzero"/></clipPath><clipPath id="21c2121105"><path d="M 20.105469 137.324219 L 114.792969 137.324219 L 114.792969 215.6875 L 20.105469 215.6875 Z M 20.105469 137.324219 " clip-rule="nonzero"/></clipPath><clipPath id="95b1d21f75"><path d="M 67.285156 137.324219 C 41.226562 137.324219 20.105469 154.820312 20.105469 176.402344 C 20.105469 197.988281 41.226562 215.484375 67.285156 215.484375 C 93.339844 215.484375 114.464844 197.988281 114.464844 176.402344 C 114.464844 154.820312 93.339844 137.324219 67.285156 137.324219 " clip-rule="nonzero"/></clipPath><clipPath id="ce789fd71b"><path d="M 77 153 L 103 153 L 103 189 L 77 189 Z M 77 153 " clip-rule="nonzero"/></clipPath><clipPath id="4ec9bd94cd"><path d="M 74.167969 156.941406 L 97.039062 150.835938 L 106.304688 185.539062 L 83.433594 191.644531 Z M 74.167969 156.941406 " clip-rule="nonzero"/></clipPath><clipPath id="526f612a36"><path d="M 85.515625 153.914062 C 79.25 155.585938 76.226562 164.652344 78.765625 174.160156 C 81.304688 183.667969 88.441406 190.019531 94.707031 188.347656 C 100.972656 186.671875 103.996094 177.609375 101.457031 168.101562 C 98.921875 158.59375 91.78125 152.242188 85.515625 153.914062 " clip-rule="nonzero"/></clipPath><clipPath id="bb7c2d98ce"><path d="M 32 153 L 57 153 L 57 189 L 32 189 Z M 32 153 " clip-rule="nonzero"/></clipPath><clipPath id="ab72773b75"><path d="M 38.039062 150.855469 L 60.898438 157.011719 L 51.554688 191.691406 L 28.695312 185.535156 Z M 38.039062 150.855469 " clip-rule="nonzero"/></clipPath><clipPath id="56a87e002b"><path d="M 49.378906 153.910156 C 43.117188 152.222656 35.964844 158.558594 33.40625 168.058594 C 30.84375 177.5625 33.84375 186.632812 40.109375 188.320312 C 46.371094 190.007812 53.523438 183.671875 56.085938 174.171875 C 58.644531 164.667969 55.644531 155.597656 49.378906 153.910156 " clip-rule="nonzero"/></clipPath><clipPath id="adccbc9262"><path d="M 58.667969 182.546875 L 76 182.546875 L 76 195 L 58.667969 195 Z M 58.667969 182.546875 " clip-rule="nonzero"/></clipPath><clipPath id="e744eb3524"><path d="M 67.285156 182.546875 C 62.527344 182.546875 58.667969 185.335938 58.667969 188.78125 C 58.667969 192.222656 62.527344 195.011719 67.285156 195.011719 C 72.042969 195.011719 75.898438 192.222656 75.898438 188.78125 C 75.898438 185.335938 72.042969 182.546875 67.285156 182.546875 " clip-rule="nonzero"/></clipPath><clipPath id="e9bd89421c"><path d="M 60.722656 209.089844 L 73.78125 209.089844 L 73.78125 213 L 60.722656 213 Z M 60.722656 209.089844 " clip-rule="nonzero"/></clipPath><clipPath id="afc5552f56"><path d="M 67.238281 209.089844 C 63.636719 209.089844 60.722656 209.941406 60.722656 210.988281 C 60.722656 212.039062 63.636719 212.886719 67.238281 212.886719 C 70.835938 212.886719 73.753906 212.039062 73.753906 210.988281 C 73.753906 209.941406 70.835938 209.089844 67.238281 209.089844 " clip-rule="nonzero"/></clipPath><clipPath id="7809b802d8"><path d="M 86.117188 200.546875 L 114 200.546875 L 114 245.457031 L 86.117188 245.457031 Z M 86.117188 200.546875 " clip-rule="nonzero"/></clipPath><clipPath id="c0e1760539"><path d="M 89.867188 200.546875 L 109.863281 200.546875 C 111.9375 200.546875 113.613281 202.226562 113.613281 204.296875 L 113.613281 241.640625 C 113.613281 243.710938 111.9375 245.390625 109.863281 245.390625 L 89.867188 245.390625 C 87.792969 245.390625 86.117188 243.710938 86.117188 241.640625 L 86.117188 204.296875 C 86.117188 202.226562 87.792969 200.546875 89.867188 200.546875 " clip-rule="nonzero"/></clipPath><clipPath id="066506ba62"><path d="M 105.023438 203.5 L 110.675781 203.5 L 110.675781 209.15625 L 105.023438 209.15625 Z M 105.023438 203.5 " clip-rule="nonzero"/></clipPath><clipPath id="59e2a53df8"><path d="M 107.851562 203.5 C 106.289062 203.5 105.023438 204.765625 105.023438 206.328125 C 105.023438 207.890625 106.289062 209.15625 107.851562 209.15625 C 109.410156 209.15625 110.675781 207.890625 110.675781 206.328125 C 110.675781 204.765625 109.410156 203.5 107.851562 203.5 " clip-rule="nonzero"/></clipPath><clipPath id="fa36f43e3c"><path d="M 105.023438 210.0625 L 110.675781 210.0625 L 110.675781 215.714844 L 105.023438 215.714844 Z M 105.023438 210.0625 " clip-rule="nonzero"/></clipPath><clipPath id="ac1e467712"><path d="M 107.851562 210.0625 C 106.289062 210.0625 105.023438 211.328125 105.023438 212.886719 C 105.023438 214.449219 106.289062 215.714844 107.851562 215.714844 C 109.410156 215.714844 110.675781 214.449219 110.675781 212.886719 C 110.675781 211.328125 109.410156 210.0625 107.851562 210.0625 " clip-rule="nonzero"/></clipPath></defs><g clip-path="url(#55b22b4d07)"><g clip-path="url(#a8c5e847e6)"><path fill="#050119" d="M 18.707031 129.609375 L 48.453125 129.609375 L 48.453125 159.355469 L 18.707031 159.355469 Z M 18.707031 129.609375 " fill-opacity="1" fill-rule="nonzero"/></g></g><g clip-path="url(#0ad3484e82)"><g clip-path="url(#ea82cde101)"><path fill="#050119" d="M 86.117188 129.609375 L 115.859375 129.609375 L 115.859375 159.355469 L 86.117188 159.355469 Z M 86.117188 129.609375 " fill-opacity="1" fill-rule="nonzero"/></g></g><g clip-path="url(#21c2121105)"><g clip-path="url(#95b1d21f75)"><path fill="#f4f4f4" d="M 20.105469 137.324219 L 114.792969 137.324219 L 114.792969 215.6875 L 20.105469 215.6875 Z M 20.105469 137.324219 " fill-opacity="1" fill-rule="nonzero"/></g></g><g clip-path="url(#ce789fd71b)"><g clip-path="url(#4ec9bd94cd)"><g clip-path="url(#526f612a36)"><path fill="#050119" d="M 74.167969 156.941406 L 97.039062 150.835938 L 106.304688 185.539062 L 83.433594 191.644531 Z M 74.167969 156.941406 " fill-opacity="1" fill-rule="nonzero"/></g></g></g><g clip-path="url(#bb7c2d98ce)"><g clip-path="url(#ab72773b75)"><g clip-path="url(#56a87e002b)"><path fill="#050119" d="M 38.039062 150.855469 L 60.898438 157.011719 L 51.554688 191.691406 L 28.695312 185.535156 Z M 38.039062 150.855469 " fill-opacity="1" fill-rule="nonzero"/></g></g></g><g clip-path="url(#adccbc9262)"><g clip-path="url(#e744eb3524)"><path fill="#050119" d="M 58.667969 182.546875 L 75.867188 182.546875 L 75.867188 194.9375 L 58.667969 194.9375 Z M 58.667969 182.546875 " fill-opacity="1" fill-rule="nonzero"/></g></g><path stroke-linecap="butt" transform="matrix(0.699464, -0.261268, 0.262434, 0.702587, 71.018232, 210.280635)" fill="none" stroke-linejoin="miter" d="M 0.000192627 1.001713 L 7.042384 1.001787 " stroke="#050119" stroke-width="2" stroke-opacity="1" stroke-miterlimit="4"/><path stroke-linecap="butt" transform="matrix(0.700499, 0.258481, -0.259635, 0.703626, 58.50278, 208.453023)" fill="none" stroke-linejoin="miter" d="M -0.00138753 0.999943 L 7.041509 0.999736 " stroke="#050119" stroke-width="2" stroke-opacity="1" stroke-miterlimit="4"/><g clip-path="url(#e9bd89421c)"><g clip-path="url(#afc5552f56)"><path fill="#6b1212" d="M 60.722656 209.089844 L 73.78125 209.089844 L 73.78125 213.007812 L 60.722656 213.007812 Z M 60.722656 209.089844 " fill-opacity="1" fill-rule="nonzero"/></g></g><g clip-path="url(#7809b802d8)"><g clip-path="url(#c0e1760539)"><path fill="#050119" d="M 86.117188 200.546875 L 114.058594 200.546875 L 114.058594 245.457031 L 86.117188 245.457031 Z M 86.117188 200.546875 " fill-opacity="1" fill-rule="nonzero"/></g></g><g clip-path="url(#066506ba62)"><g clip-path="url(#59e2a53df8)"><path fill="#f4f4f4" d="M 105.023438 203.5 L 110.675781 203.5 L 110.675781 209.15625 L 105.023438 209.15625 Z M 105.023438 203.5 " fill-opacity="1" fill-rule="nonzero"/></g></g><g clip-path="url(#fa36f43e3c)"><g clip-path="url(#ac1e467712)"><path fill="#f4f4f4" d="M 105.023438 210.0625 L 110.675781 210.0625 L 110.675781 215.714844 L 105.023438 215.714844 Z M 105.023438 210.0625 " fill-opacity="1" fill-rule="nonzero"/></g></g><g fill="#f4f4f4" fill-opacity="1"><g transform="translate(128.290687, 200.7849)"><g><path d="M 3.625 -36.21875 L 20.75 -36.21875 C 24.707031 -36.21875 28.222656 -35.472656 31.296875 -33.984375 C 34.367188 -32.503906 36.75 -30.398438 38.4375 -27.671875 C 40.125 -24.953125 40.96875 -21.765625 40.96875 -18.109375 C 40.96875 -14.453125 40.125 -11.257812 38.4375 -8.53125 C 36.75 -5.8125 34.367188 -3.707031 31.296875 -2.21875 C 28.222656 -0.738281 24.707031 0 20.75 0 L 3.625 0 Z M 20.328125 -8.171875 C 23.429688 -8.171875 25.921875 -9.050781 27.796875 -10.8125 C 29.679688 -12.570312 30.625 -15.003906 30.625 -18.109375 C 30.625 -21.210938 29.679688 -23.644531 27.796875 -25.40625 C 25.921875 -27.164062 23.429688 -28.046875 20.328125 -28.046875 L 13.859375 -28.046875 L 13.859375 -8.171875 Z M 20.328125 -8.171875 "/></g></g></g><g fill="#f4f4f4" fill-opacity="1"><g transform="translate(171.020516, 200.7849)"><g><path d="M 3.15625 -28.046875 L 12.984375 -28.046875 L 12.984375 0 L 3.15625 0 Z M 8.078125 -31.140625 C 6.285156 -31.140625 4.835938 -31.640625 3.734375 -32.640625 C 2.628906 -33.640625 2.078125 -34.882812 2.078125 -36.375 C 2.078125 -37.851562 2.628906 -39.09375 3.734375 -40.09375 C 4.835938 -41.09375 6.285156 -41.59375 8.078125 -41.59375 C 9.867188 -41.59375 11.316406 -41.117188 12.421875 -40.171875 C 13.523438 -39.222656 14.078125 -38.007812 14.078125 -36.53125 C 14.078125 -34.976562 13.523438 -33.691406 12.421875 -32.671875 C 11.316406 -31.648438 9.867188 -31.140625 8.078125 -31.140625 Z M 8.078125 -31.140625 "/></g></g></g><g fill="#f4f4f4" fill-opacity="1"><g transform="translate(187.212323, 200.7849)"><g><path d="M 33.3125 -28.046875 L 33.3125 -5.125 C 33.3125 0.0820312 31.894531 3.988281 29.0625 6.59375 C 26.238281 9.195312 22.171875 10.5 16.859375 10.5 C 14.109375 10.5 11.523438 10.1875 9.109375 9.5625 C 6.691406 8.945312 4.640625 8.035156 2.953125 6.828125 L 6.515625 -0.046875 C 7.648438 0.878906 9.085938 1.609375 10.828125 2.140625 C 12.578125 2.679688 14.296875 2.953125 15.984375 2.953125 C 18.566406 2.953125 20.460938 2.378906 21.671875 1.234375 C 22.878906 0.0976562 23.484375 -1.585938 23.484375 -3.828125 L 23.484375 -4.765625 C 21.585938 -2.554688 18.8125 -1.453125 15.15625 -1.453125 C 12.675781 -1.453125 10.382812 -2.007812 8.28125 -3.125 C 6.175781 -4.25 4.5 -5.835938 3.25 -7.890625 C 2.007812 -9.941406 1.390625 -12.3125 1.390625 -15 C 1.390625 -17.65625 2.007812 -20.007812 3.25 -22.0625 C 4.5 -24.113281 6.175781 -25.695312 8.28125 -26.8125 C 10.382812 -27.9375 12.675781 -28.5 15.15625 -28.5 C 19.15625 -28.5 22.085938 -27.207031 23.953125 -24.625 L 23.953125 -28.046875 Z M 17.484375 -9.265625 C 19.242188 -9.265625 20.703125 -9.796875 21.859375 -10.859375 C 23.015625 -11.929688 23.59375 -13.3125 23.59375 -15 C 23.59375 -16.6875 23.019531 -18.054688 21.875 -19.109375 C 20.738281 -20.160156 19.273438 -20.6875 17.484375 -20.6875 C 15.691406 -20.6875 14.21875 -20.160156 13.0625 -19.109375 C 11.90625 -18.054688 11.328125 -16.6875 11.328125 -15 C 11.328125 -13.3125 11.910156 -11.929688 13.078125 -10.859375 C 14.253906 -9.796875 15.722656 -9.265625 17.484375 -9.265625 Z M 17.484375 -9.265625 "/></g></g></g><g fill="#f4f4f4" fill-opacity="1"><g transform="translate(223.68269, 200.7849)"><g><path d="M 3.625 -36.21875 L 20.75 -36.21875 C 24.707031 -36.21875 28.222656 -35.472656 31.296875 -33.984375 C 34.367188 -32.503906 36.75 -30.398438 38.4375 -27.671875 C 40.125 -24.953125 40.96875 -21.765625 40.96875 -18.109375 C 40.96875 -14.453125 40.125 -11.257812 38.4375 -8.53125 C 36.75 -5.8125 34.367188 -3.707031 31.296875 -2.21875 C 28.222656 -0.738281 24.707031 0 20.75 0 L 3.625 0 Z M 20.328125 -8.171875 C 23.429688 -8.171875 25.921875 -9.050781 27.796875 -10.8125 C 29.679688 -12.570312 30.625 -15.003906 30.625 -18.109375 C 30.625 -21.210938 29.679688 -23.644531 27.796875 -25.40625 C 25.921875 -27.164062 23.429688 -28.046875 20.328125 -28.046875 L 13.859375 -28.046875 L 13.859375 -8.171875 Z M 20.328125 -8.171875 "/></g></g></g><g fill="#f4f4f4" fill-opacity="1"><g transform="translate(266.412519, 200.7849)"><g><path d="M 32.640625 -28.046875 L 32.640625 0 L 23.28125 0 L 23.28125 -3 C 22.25 -1.863281 21.003906 -1 19.546875 -0.40625 C 18.097656 0.175781 16.566406 0.46875 14.953125 0.46875 C 11.328125 0.46875 8.4375 -0.597656 6.28125 -2.734375 C 4.125 -4.878906 3.046875 -8.085938 3.046875 -12.359375 L 3.046875 -28.046875 L 12.875 -28.046875 L 12.875 -13.96875 C 12.875 -11.863281 13.269531 -10.328125 14.0625 -9.359375 C 14.863281 -8.398438 16.019531 -7.921875 17.53125 -7.921875 C 19.082031 -7.921875 20.347656 -8.460938 21.328125 -9.546875 C 22.316406 -10.628906 22.8125 -12.289062 22.8125 -14.53125 L 22.8125 -28.046875 Z M 32.640625 -28.046875 "/></g></g></g><g fill="#f4f4f4" fill-opacity="1"><g transform="translate(302.210383, 200.7849)"><g><path d="M 39.6875 -28.5 C 43.132812 -28.5 45.882812 -27.460938 47.9375 -25.390625 C 49.988281 -23.328125 51.015625 -20.207031 51.015625 -16.03125 L 51.015625 0 L 41.1875 0 L 41.1875 -14.4375 C 41.1875 -16.394531 40.8125 -17.835938 40.0625 -18.765625 C 39.320312 -19.703125 38.28125 -20.171875 36.9375 -20.171875 C 35.457031 -20.171875 34.269531 -19.65625 33.375 -18.625 C 32.476562 -17.59375 32.03125 -16.023438 32.03125 -13.921875 L 32.03125 0 L 22.1875 0 L 22.1875 -14.4375 C 22.1875 -18.257812 20.773438 -20.171875 17.953125 -20.171875 C 16.429688 -20.171875 15.222656 -19.65625 14.328125 -18.625 C 13.429688 -17.59375 12.984375 -16.023438 12.984375 -13.921875 L 12.984375 0 L 3.15625 0 L 3.15625 -28.046875 L 12.515625 -28.046875 L 12.515625 -25.09375 C 13.554688 -26.226562 14.789062 -27.078125 16.21875 -27.640625 C 17.644531 -28.210938 19.207031 -28.5 20.90625 -28.5 C 22.863281 -28.5 24.617188 -28.132812 26.171875 -27.40625 C 27.722656 -26.6875 28.984375 -25.585938 29.953125 -24.109375 C 31.054688 -25.523438 32.453125 -26.609375 34.140625 -27.359375 C 35.835938 -28.117188 37.6875 -28.5 39.6875 -28.5 Z M 39.6875 -28.5 "/></g></g></g></svg>