<svg xmlns="http://www.w3.org/2000/svg" xmlns:xlink="http://www.w3.org/1999/xlink" width="500" zoomAndPan="magnify" viewBox="0 0 375 374.999991" height="500" preserveAspectRatio="xMidYMid meet" version="1.0"><defs><clipPath id="605e8bfdac"><path d="M 0 6.015625 L 121.390625 6.015625 L 121.390625 127.40625 L 0 127.40625 Z M 0 6.015625 " clip-rule="nonzero"/></clipPath><clipPath id="b3b900ffbd"><path d="M 60.695312 6.015625 C 27.175781 6.015625 0 33.191406 0 66.710938 C 0 100.234375 27.175781 127.40625 60.695312 127.40625 C 94.214844 127.40625 121.390625 100.234375 121.390625 66.710938 C 121.390625 33.191406 94.214844 6.015625 60.695312 6.015625 " clip-rule="nonzero"/></clipPath><clipPath id="8f00d3e30a"><path d="M 253.609375 6.015625 L 375 6.015625 L 375 127.40625 L 253.609375 127.40625 Z M 253.609375 6.015625 " clip-rule="nonzero"/></clipPath><clipPath id="cf12e24eb1"><path d="M 314.304688 6.015625 C 280.785156 6.015625 253.609375 33.191406 253.609375 66.710938 C 253.609375 100.234375 280.785156 127.40625 314.304688 127.40625 C 347.824219 127.40625 375 100.234375 375 66.710938 C 375 33.191406 347.824219 6.015625 314.304688 6.015625 " clip-rule="nonzero"/></clipPath><clipPath id="4720148a0d"><path d="M 0 42.914062 L 375 42.914062 L 375 369 L 0 369 Z M 0 42.914062 " clip-rule="nonzero"/></clipPath><clipPath id="922396a8bb"><path d="M 187.5 42.914062 C 83.945312 42.914062 0 115.738281 0 205.578125 C 0 295.414062 83.945312 368.242188 187.5 368.242188 C 291.054688 368.242188 375 295.414062 375 205.578125 C 375 115.738281 291.054688 42.914062 187.5 42.914062 " clip-rule="nonzero"/></clipPath><clipPath id="883e12c4e4"><path d="M 230 104 L 331 104 L 331 247 L 230 247 Z M 230 104 " clip-rule="nonzero"/></clipPath><clipPath id="0f24ec224e"><path d="M 215.597656 117.566406 L 308.9375 92.648438 L 346.738281 234.265625 L 253.398438 259.183594 Z M 215.597656 117.566406 " clip-rule="nonzero"/></clipPath><clipPath id="a48e14e4ed"><path d="M 261.90625 105.203125 C 236.328125 112.03125 223.996094 149.023438 234.351562 187.824219 C 244.710938 226.628906 273.839844 252.550781 299.414062 245.722656 C 324.988281 238.898438 337.324219 201.90625 326.96875 163.101562 C 316.609375 124.300781 287.480469 98.378906 261.90625 105.203125 " clip-rule="nonzero"/></clipPath><clipPath id="ca11be35ee"><path d="M 45 104 L 146 104 L 146 247 L 45 247 Z M 45 104 " clip-rule="nonzero"/></clipPath><clipPath id="bd3d117dbf"><path d="M 68.15625 92.71875 L 161.4375 117.851562 L 123.300781 259.378906 L 30.023438 234.246094 Z M 68.15625 92.71875 " clip-rule="nonzero"/></clipPath><clipPath id="26f8aaf42a"><path d="M 114.433594 105.1875 C 88.875 98.300781 59.6875 124.152344 49.238281 162.933594 C 38.789062 201.710938 51.035156 238.730469 76.59375 245.617188 C 102.152344 252.503906 131.34375 226.652344 141.792969 187.871094 C 152.242188 149.09375 139.992188 112.074219 114.433594 105.1875 " clip-rule="nonzero"/></clipPath><clipPath id="72854436c7"><path d="M 152.339844 222.054688 L 223 222.054688 L 223 273 L 152.339844 273 Z M 152.339844 222.054688 " clip-rule="nonzero"/></clipPath><clipPath id="91dc8e4304"><path d="M 187.5 222.054688 C 168.082031 222.054688 152.339844 233.445312 152.339844 247.492188 C 152.339844 261.542969 168.082031 272.933594 187.5 272.933594 C 206.917969 272.933594 222.660156 261.542969 222.660156 247.492188 C 222.660156 233.445312 206.917969 222.054688 187.5 222.054688 " clip-rule="nonzero"/></clipPath><clipPath id="1e17571009"><path d="M 75.042969 147.789062 L 130.542969 147.789062 L 130.542969 203.289062 L 75.042969 203.289062 Z M 75.042969 147.789062 " clip-rule="nonzero"/></clipPath><clipPath id="0520537eb4"><path d="M 91.566406 175.402344 L 130.566406 175.402344 L 130.566406 214.402344 L 91.566406 214.402344 Z M 91.566406 175.402344 " clip-rule="nonzero"/></clipPath><clipPath id="818b7d70a3"><path d="M 142.816406 294.527344 L 232.066406 294.527344 L 232.066406 344.027344 L 142.816406 344.027344 Z M 142.816406 294.527344 " clip-rule="nonzero"/></clipPath><clipPath id="a94c95e011"><path d="M 244.601562 147.789062 L 300.101562 147.789062 L 300.101562 203.289062 L 244.601562 203.289062 Z M 244.601562 147.789062 " clip-rule="nonzero"/></clipPath><clipPath id="395ae45747"><path d="M 261.125 175.402344 L 300.125 175.402344 L 300.125 214.402344 L 261.125 214.402344 Z M 261.125 175.402344 " clip-rule="nonzero"/></clipPath></defs><g clip-path="url(#605e8bfdac)"><g clip-path="url(#b3b900ffbd)"><path fill="#050119" d="M 0 6.015625 L 121.390625 6.015625 L 121.390625 127.40625 L 0 127.40625 Z M 0 6.015625 " fill-opacity="1" fill-rule="nonzero"/></g></g><g clip-path="url(#8f00d3e30a)"><g clip-path="url(#cf12e24eb1)"><path fill="#050119" d="M 253.609375 6.015625 L 375 6.015625 L 375 127.40625 L 253.609375 127.40625 Z M 253.609375 6.015625 " fill-opacity="1" fill-rule="nonzero"/></g></g><g clip-path="url(#4720148a0d)"><g clip-path="url(#922396a8bb)"><path fill="#f4f4f4" d="M 0 42.914062 L 376.433594 42.914062 L 376.433594 369.375 L 0 369.375 Z M 0 42.914062 " fill-opacity="1" fill-rule="nonzero"/></g></g><g clip-path="url(#883e12c4e4)"><g clip-path="url(#0f24ec224e)"><g clip-path="url(#a48e14e4ed)"><path fill="#050119" d="M 215.597656 117.566406 L 308.9375 92.648438 L 346.738281 234.265625 L 253.398438 259.183594 Z M 215.597656 117.566406 " fill-opacity="1" fill-rule="nonzero"/></g></g></g><g clip-path="url(#ca11be35ee)"><g clip-path="url(#bd3d117dbf)"><g clip-path="url(#26f8aaf42a)"><path fill="#050119" d="M 68.15625 92.71875 L 161.4375 117.851562 L 123.300781 259.378906 L 30.023438 234.246094 Z M 68.15625 92.71875 " fill-opacity="1" fill-rule="nonzero"/></g></g></g><g clip-path="url(#72854436c7)"><g clip-path="url(#91dc8e4304)"><path fill="#050119" d="M 152.339844 222.054688 L 222.53125 222.054688 L 222.53125 272.625 L 152.339844 272.625 Z M 152.339844 222.054688 " fill-opacity="1" fill-rule="nonzero"/></g></g><g clip-path="url(#1e17571009)"><path fill="#f4f4f4" d="M 130.542969 175.539062 C 130.542969 176.445312 130.5 177.355469 130.410156 178.257812 C 130.320312 179.164062 130.1875 180.0625 130.011719 180.953125 C 129.832031 181.84375 129.613281 182.722656 129.347656 183.59375 C 129.085938 184.464844 128.78125 185.316406 128.433594 186.15625 C 128.082031 186.996094 127.695312 187.816406 127.265625 188.621094 C 126.839844 189.421875 126.371094 190.199219 125.867188 190.957031 C 125.363281 191.710938 124.820312 192.441406 124.246094 193.144531 C 123.667969 193.84375 123.058594 194.519531 122.417969 195.160156 C 121.773438 195.804688 121.101562 196.414062 120.398438 196.988281 C 119.695312 197.566406 118.96875 198.105469 118.210938 198.613281 C 117.457031 199.117188 116.675781 199.582031 115.875 200.011719 C 115.074219 200.441406 114.253906 200.828125 113.414062 201.175781 C 112.574219 201.523438 111.71875 201.828125 110.847656 202.09375 C 109.980469 202.355469 109.097656 202.578125 108.207031 202.753906 C 107.316406 202.933594 106.417969 203.066406 105.515625 203.15625 C 104.609375 203.242188 103.703125 203.289062 102.792969 203.289062 C 101.886719 203.289062 100.980469 203.242188 100.074219 203.15625 C 99.167969 203.066406 98.273438 202.933594 97.378906 202.753906 C 96.488281 202.578125 95.609375 202.355469 94.738281 202.09375 C 93.867188 201.828125 93.015625 201.523438 92.175781 201.175781 C 91.335938 200.828125 90.515625 200.441406 89.710938 200.011719 C 88.910156 199.582031 88.132812 199.117188 87.378906 198.613281 C 86.621094 198.105469 85.890625 197.566406 85.191406 196.988281 C 84.488281 196.414062 83.816406 195.804688 83.171875 195.160156 C 82.527344 194.519531 81.917969 193.84375 81.34375 193.144531 C 80.765625 192.441406 80.226562 191.710938 79.722656 190.957031 C 79.214844 190.199219 78.75 189.421875 78.320312 188.621094 C 77.890625 187.816406 77.503906 186.996094 77.15625 186.15625 C 76.808594 185.316406 76.503906 184.464844 76.238281 183.59375 C 75.976562 182.722656 75.753906 181.84375 75.578125 180.953125 C 75.398438 180.0625 75.265625 179.164062 75.179688 178.257812 C 75.089844 177.355469 75.042969 176.445312 75.042969 175.539062 C 75.042969 174.628906 75.089844 173.722656 75.179688 172.816406 C 75.265625 171.914062 75.398438 171.015625 75.578125 170.125 C 75.753906 169.234375 75.976562 168.351562 76.238281 167.484375 C 76.503906 166.613281 76.808594 165.757812 77.15625 164.917969 C 77.503906 164.078125 77.890625 163.257812 78.320312 162.457031 C 78.75 161.65625 79.214844 160.875 79.722656 160.121094 C 80.226562 159.367188 80.765625 158.636719 81.34375 157.933594 C 81.917969 157.230469 82.527344 156.558594 83.171875 155.917969 C 83.816406 155.273438 84.488281 154.664062 85.191406 154.085938 C 85.890625 153.511719 86.621094 152.96875 87.378906 152.464844 C 88.132812 151.960938 88.910156 151.492188 89.710938 151.066406 C 90.515625 150.636719 91.335938 150.25 92.175781 149.902344 C 93.015625 149.554688 93.867188 149.246094 94.738281 148.984375 C 95.609375 148.71875 96.488281 148.5 97.378906 148.320312 C 98.273438 148.144531 99.167969 148.011719 100.074219 147.921875 C 100.980469 147.832031 101.886719 147.789062 102.792969 147.789062 C 103.703125 147.789062 104.609375 147.832031 105.515625 147.921875 C 106.417969 148.011719 107.316406 148.144531 108.207031 148.320312 C 109.097656 148.5 109.980469 148.71875 110.847656 148.984375 C 111.71875 149.246094 112.574219 149.554688 113.414062 149.902344 C 114.253906 150.25 115.074219 150.636719 115.875 151.066406 C 116.675781 151.492188 117.457031 151.960938 118.210938 152.464844 C 118.96875 152.96875 119.695312 153.511719 120.398438 154.085938 C 121.101562 154.664062 121.773438 155.273438 122.417969 155.917969 C 123.058594 156.558594 123.667969 157.230469 124.246094 157.933594 C 124.820312 158.636719 125.363281 159.367188 125.867188 160.121094 C 126.371094 160.875 126.839844 161.65625 127.265625 162.457031 C 127.695312 163.257812 128.082031 164.078125 128.433594 164.917969 C 128.78125 165.757812 129.085938 166.613281 129.347656 167.484375 C 129.613281 168.351562 129.832031 169.234375 130.011719 170.125 C 130.1875 171.015625 130.320312 171.914062 130.410156 172.816406 C 130.5 173.722656 130.542969 174.628906 130.542969 175.539062 Z M 130.542969 175.539062 " fill-opacity="1" fill-rule="nonzero"/></g><g clip-path="url(#0520537eb4)"><path fill="#050119" d="M 130.566406 194.902344 C 130.566406 195.539062 130.535156 196.175781 130.472656 196.8125 C 130.410156 197.449219 130.316406 198.078125 130.191406 198.707031 C 130.066406 199.332031 129.914062 199.949219 129.726562 200.5625 C 129.542969 201.171875 129.328125 201.773438 129.082031 202.363281 C 128.839844 202.953125 128.566406 203.53125 128.265625 204.09375 C 127.964844 204.65625 127.636719 205.203125 127.28125 205.734375 C 126.925781 206.265625 126.546875 206.777344 126.140625 207.273438 C 125.734375 207.765625 125.308594 208.238281 124.855469 208.691406 C 124.402344 209.140625 123.929688 209.570312 123.4375 209.976562 C 122.945312 210.378906 122.433594 210.761719 121.902344 211.113281 C 121.371094 211.46875 120.824219 211.796875 120.257812 212.097656 C 119.695312 212.398438 119.121094 212.671875 118.53125 212.917969 C 117.9375 213.160156 117.339844 213.375 116.726562 213.5625 C 116.117188 213.746094 115.496094 213.902344 114.871094 214.027344 C 114.246094 214.152344 113.613281 214.246094 112.976562 214.308594 C 112.34375 214.371094 111.707031 214.402344 111.066406 214.402344 C 110.429688 214.402344 109.792969 214.371094 109.15625 214.308594 C 108.519531 214.246094 107.890625 214.152344 107.261719 214.027344 C 106.636719 213.902344 106.019531 213.746094 105.40625 213.5625 C 104.796875 213.375 104.195312 213.160156 103.605469 212.917969 C 103.015625 212.671875 102.4375 212.398438 101.875 212.097656 C 101.3125 211.796875 100.765625 211.46875 100.234375 211.113281 C 99.703125 210.761719 99.191406 210.378906 98.695312 209.976562 C 98.203125 209.570312 97.730469 209.140625 97.277344 208.691406 C 96.828125 208.238281 96.398438 207.765625 95.992188 207.273438 C 95.589844 206.777344 95.207031 206.265625 94.851562 205.734375 C 94.5 205.203125 94.171875 204.65625 93.871094 204.09375 C 93.570312 203.53125 93.296875 202.953125 93.050781 202.363281 C 92.808594 201.773438 92.59375 201.171875 92.40625 200.5625 C 92.222656 199.949219 92.066406 199.332031 91.941406 198.707031 C 91.816406 198.078125 91.722656 197.449219 91.660156 196.8125 C 91.597656 196.175781 91.566406 195.539062 91.566406 194.902344 C 91.566406 194.261719 91.597656 193.625 91.660156 192.988281 C 91.722656 192.355469 91.816406 191.722656 91.941406 191.097656 C 92.066406 190.46875 92.222656 189.851562 92.40625 189.242188 C 92.59375 188.628906 92.808594 188.027344 93.050781 187.4375 C 93.296875 186.847656 93.570312 186.273438 93.871094 185.707031 C 94.171875 185.144531 94.5 184.597656 94.851562 184.066406 C 95.207031 183.535156 95.589844 183.023438 95.992188 182.53125 C 96.398438 182.035156 96.828125 181.5625 97.277344 181.113281 C 97.730469 180.660156 98.203125 180.234375 98.695312 179.828125 C 99.191406 179.421875 99.703125 179.042969 100.234375 178.6875 C 100.765625 178.332031 101.3125 178.003906 101.875 177.703125 C 102.4375 177.402344 103.015625 177.128906 103.605469 176.886719 C 104.195312 176.640625 104.796875 176.425781 105.40625 176.242188 C 106.019531 176.054688 106.636719 175.898438 107.261719 175.777344 C 107.890625 175.652344 108.519531 175.558594 109.15625 175.496094 C 109.792969 175.433594 110.429688 175.402344 111.066406 175.402344 C 111.707031 175.402344 112.34375 175.433594 112.976562 175.496094 C 113.613281 175.558594 114.246094 175.652344 114.871094 175.777344 C 115.496094 175.898438 116.117188 176.054688 116.726562 176.242188 C 117.339844 176.425781 117.9375 176.640625 118.53125 176.886719 C 119.121094 177.128906 119.695312 177.402344 120.257812 177.703125 C 120.824219 178.003906 121.371094 178.332031 121.902344 178.6875 C 122.433594 179.042969 122.945312 179.421875 123.4375 179.828125 C 123.929688 180.234375 124.402344 180.660156 124.855469 181.113281 C 125.308594 181.5625 125.734375 182.035156 126.140625 182.53125 C 126.546875 183.023438 126.925781 183.535156 127.28125 184.066406 C 127.636719 184.597656 127.964844 185.144531 128.265625 185.707031 C 128.566406 186.273438 128.839844 186.847656 129.082031 187.4375 C 129.328125 188.027344 129.542969 188.628906 129.726562 189.242188 C 129.914062 189.851562 130.066406 190.46875 130.191406 191.097656 C 130.316406 191.722656 130.410156 192.355469 130.472656 192.988281 C 130.535156 193.625 130.566406 194.261719 130.566406 194.902344 Z M 130.566406 194.902344 " fill-opacity="1" fill-rule="nonzero"/></g><g clip-path="url(#818b7d70a3)"><path fill="#050119" d="M 203.714844 340.121094 C 201.058594 342.070312 193.957031 342.769531 190.601562 340.789062 C 190.109375 340.5 189.480469 340.667969 189.191406 341.160156 C 188.90625 341.65625 189.070312 342.292969 189.5625 342.582031 C 191.273438 343.589844 193.679688 344.035156 196.136719 344.035156 C 199.539062 344.035156 203.039062 343.183594 204.921875 341.800781 C 205.382812 341.464844 205.484375 340.8125 205.152344 340.351562 C 204.816406 339.886719 204.171875 339.785156 203.714844 340.121094 Z M 209.8125 332.742188 C 209.417969 332.324219 208.769531 332.308594 208.355469 332.703125 C 201.019531 339.71875 191.367188 338.578125 184.78125 335.164062 C 184.277344 334.902344 183.65625 335.105469 183.394531 335.613281 C 183.136719 336.125 183.335938 336.75 183.839844 337.011719 C 187.195312 338.746094 191.28125 339.941406 195.511719 339.941406 C 200.375 339.941406 205.429688 338.359375 209.773438 334.207031 C 210.183594 333.8125 210.203125 333.15625 209.8125 332.742188 Z M 224.722656 299.710938 C 219.03125 299.390625 212.21875 302.492188 204.328125 306.082031 C 187.367188 313.796875 168.140625 322.539062 151.226562 302.753906 C 150.667969 302.105469 149.695312 302.03125 149.050781 302.59375 C 148.402344 303.15625 148.332031 304.136719 148.886719 304.789062 C 160.042969 321.636719 175.226562 329.515625 187.003906 331.957031 C 194.046875 333.417969 199.871094 332.933594 202.882812 331.257812 C 205.785156 329.644531 207.90625 327.546875 209.554688 325.21875 C 215.707031 316.519531 215.265625 304.613281 224.550781 302.816406 C 225.390625 302.65625 226.128906 302.207031 226.175781 301.351562 C 226.222656 300.496094 225.574219 299.761719 224.722656 299.710938 Z M 144.246094 304.042969 C 144.3125 303.898438 144.378906 303.757812 144.457031 303.625 L 144.6875 303.226562 C 144.824219 302.957031 145.015625 302.722656 145.167969 302.480469 C 145.519531 302.023438 145.878906 301.597656 146.277344 301.222656 C 146.683594 300.855469 147.097656 300.511719 147.558594 300.230469 C 148.472656 299.660156 149.480469 299.25 150.609375 299.046875 L 150.824219 299 L 151.039062 298.972656 C 151.183594 298.960938 151.332031 298.933594 151.480469 298.917969 C 151.777344 298.914062 152.089844 298.867188 152.402344 298.875 C 152.71875 298.875 153.042969 298.890625 153.378906 298.917969 C 153.382812 298.917969 153.386719 298.917969 153.390625 298.917969 C 153.785156 298.953125 154.011719 298.460938 153.71875 298.191406 C 153.441406 297.933594 153.128906 297.710938 152.800781 297.515625 C 152.472656 297.320312 152.117188 297.183594 151.757812 297.039062 C 151.574219 296.972656 151.386719 296.933594 151.195312 296.882812 L 150.910156 296.8125 C 150.816406 296.792969 150.71875 296.785156 150.621094 296.769531 C 149.0625 296.535156 147.394531 296.917969 146.035156 297.78125 C 145.347656 298.210938 144.753906 298.777344 144.25 299.398438 C 143.753906 300.035156 143.386719 300.761719 143.136719 301.507812 C 143.082031 301.699219 143.039062 301.894531 142.992188 302.085938 C 142.972656 302.179688 142.945312 302.273438 142.929688 302.371094 C 142.917969 302.464844 142.910156 302.566406 142.898438 302.664062 C 142.878906 302.855469 142.851562 303.046875 142.847656 303.238281 C 142.84375 303.429688 142.847656 303.625 142.863281 303.816406 C 142.886719 304.121094 142.933594 304.429688 143.007812 304.722656 C 143.121094 305.179688 143.746094 305.226562 143.917969 304.792969 C 144.019531 304.53125 144.128906 304.28125 144.246094 304.042969 Z M 229.332031 304.894531 C 229.359375 304.734375 229.386719 304.582031 229.402344 304.425781 L 229.441406 303.96875 C 229.484375 303.671875 229.464844 303.367188 229.480469 303.082031 C 229.460938 302.5 229.414062 301.945312 229.304688 301.40625 C 229.183594 300.871094 229.042969 300.347656 228.832031 299.847656 C 228.417969 298.851562 227.832031 297.925781 227.035156 297.097656 L 226.886719 296.933594 L 226.726562 296.785156 C 226.617188 296.6875 226.507812 296.582031 226.394531 296.484375 C 226.160156 296.304688 225.929688 296.085938 225.671875 295.90625 C 225.414062 295.71875 225.140625 295.546875 224.855469 295.367188 C 224.851562 295.367188 224.847656 295.367188 224.84375 295.363281 C 224.503906 295.160156 224.601562 294.625 224.996094 294.578125 C 225.371094 294.53125 225.75 294.53125 226.132812 294.566406 C 226.511719 294.601562 226.878906 294.695312 227.253906 294.792969 C 227.441406 294.84375 227.617188 294.921875 227.800781 294.992188 L 228.074219 295.101562 C 228.164062 295.140625 228.246094 295.191406 228.335938 295.238281 C 229.738281 295.960938 230.875 297.246094 231.484375 298.75 C 231.796875 299.5 231.953125 300.308594 232.003906 301.113281 C 232.039062 301.921875 231.921875 302.726562 231.695312 303.480469 C 231.628906 303.667969 231.550781 303.851562 231.480469 304.03125 C 231.441406 304.121094 231.410156 304.214844 231.367188 304.300781 C 231.320312 304.390625 231.269531 304.472656 231.226562 304.558594 C 231.128906 304.726562 231.039062 304.898438 230.933594 305.058594 C 230.824219 305.214844 230.710938 305.371094 230.589844 305.515625 C 230.390625 305.753906 230.179688 305.976562 229.949219 306.171875 C 229.59375 306.476562 229.054688 306.148438 229.167969 305.691406 C 229.234375 305.421875 229.289062 305.15625 229.332031 304.894531 " fill-opacity="1" fill-rule="nonzero"/></g><path fill="#e12020" d="M 206.804688 323.378906 C 205.429688 325.316406 203.664062 327.070312 201.242188 328.414062 C 198.730469 329.8125 193.875 330.214844 188.003906 328.996094 C 187.667969 328.664062 187.527344 328.160156 187.65625 327.675781 C 188.71875 323.59375 192.058594 320.300781 196.457031 319.539062 C 200.480469 318.84375 204.363281 320.433594 206.804688 323.378906 " fill-opacity="1" fill-rule="nonzero"/><g clip-path="url(#a94c95e011)"><path fill="#f4f4f4" d="M 300.101562 175.539062 C 300.101562 176.445312 300.058594 177.355469 299.96875 178.257812 C 299.878906 179.164062 299.746094 180.0625 299.566406 180.953125 C 299.390625 181.84375 299.171875 182.722656 298.90625 183.59375 C 298.644531 184.464844 298.335938 185.316406 297.988281 186.15625 C 297.640625 186.996094 297.253906 187.816406 296.824219 188.621094 C 296.394531 189.421875 295.929688 190.199219 295.425781 190.957031 C 294.917969 191.710938 294.378906 192.441406 293.800781 193.144531 C 293.226562 193.84375 292.617188 194.519531 291.972656 195.160156 C 291.332031 195.804688 290.660156 196.414062 289.957031 196.988281 C 289.253906 197.566406 288.523438 198.105469 287.769531 198.613281 C 287.011719 199.117188 286.234375 199.582031 285.433594 200.011719 C 284.632812 200.441406 283.8125 200.828125 282.972656 201.175781 C 282.132812 201.523438 281.277344 201.828125 280.40625 202.09375 C 279.539062 202.355469 278.65625 202.578125 277.765625 202.753906 C 276.875 202.933594 275.976562 203.066406 275.070312 203.15625 C 274.167969 203.242188 273.261719 203.289062 272.351562 203.289062 C 271.441406 203.289062 270.535156 203.242188 269.632812 203.15625 C 268.726562 203.066406 267.828125 202.933594 266.9375 202.753906 C 266.046875 202.578125 265.164062 202.355469 264.296875 202.09375 C 263.425781 201.828125 262.570312 201.523438 261.730469 201.175781 C 260.890625 200.828125 260.070312 200.441406 259.269531 200.011719 C 258.46875 199.582031 257.691406 199.117188 256.933594 198.613281 C 256.179688 198.105469 255.449219 197.566406 254.746094 196.988281 C 254.042969 196.414062 253.371094 195.804688 252.730469 195.160156 C 252.085938 194.519531 251.476562 193.84375 250.902344 193.144531 C 250.324219 192.441406 249.78125 191.710938 249.277344 190.957031 C 248.773438 190.199219 248.304688 189.421875 247.878906 188.621094 C 247.449219 187.816406 247.0625 186.996094 246.714844 186.15625 C 246.367188 185.316406 246.058594 184.464844 245.796875 183.59375 C 245.53125 182.722656 245.3125 181.84375 245.132812 180.953125 C 244.957031 180.0625 244.824219 179.164062 244.734375 178.257812 C 244.644531 177.355469 244.601562 176.445312 244.601562 175.539062 C 244.601562 174.628906 244.644531 173.722656 244.734375 172.816406 C 244.824219 171.914062 244.957031 171.015625 245.132812 170.125 C 245.3125 169.234375 245.53125 168.351562 245.796875 167.484375 C 246.058594 166.613281 246.367188 165.757812 246.714844 164.917969 C 247.0625 164.078125 247.449219 163.257812 247.878906 162.457031 C 248.304688 161.65625 248.773438 160.875 249.277344 160.121094 C 249.78125 159.367188 250.324219 158.636719 250.902344 157.933594 C 251.476562 157.230469 252.085938 156.558594 252.730469 155.917969 C 253.371094 155.273438 254.042969 154.664062 254.746094 154.085938 C 255.449219 153.511719 256.179688 152.96875 256.933594 152.464844 C 257.691406 151.960938 258.46875 151.492188 259.269531 151.066406 C 260.070312 150.636719 260.890625 150.25 261.730469 149.902344 C 262.570312 149.554688 263.425781 149.246094 264.296875 148.984375 C 265.164062 148.71875 266.046875 148.5 266.9375 148.320312 C 267.828125 148.144531 268.726562 148.011719 269.632812 147.921875 C 270.535156 147.832031 271.441406 147.789062 272.351562 147.789062 C 273.261719 147.789062 274.167969 147.832031 275.070312 147.921875 C 275.976562 148.011719 276.875 148.144531 277.765625 148.320312 C 278.65625 148.5 279.539062 148.71875 280.40625 148.984375 C 281.277344 149.246094 282.132812 149.554688 282.972656 149.902344 C 283.8125 150.25 284.632812 150.636719 285.433594 151.066406 C 286.234375 151.492188 287.011719 151.960938 287.769531 152.464844 C 288.523438 152.96875 289.253906 153.511719 289.957031 154.085938 C 290.660156 154.664062 291.332031 155.273438 291.972656 155.917969 C 292.617188 156.558594 293.226562 157.230469 293.800781 157.933594 C 294.378906 158.636719 294.917969 159.367188 295.425781 160.121094 C 295.929688 160.875 296.394531 161.65625 296.824219 162.457031 C 297.253906 163.257812 297.640625 164.078125 297.988281 164.917969 C 298.335938 165.757812 298.644531 166.613281 298.90625 167.484375 C 299.171875 168.351562 299.390625 169.234375 299.566406 170.125 C 299.746094 171.015625 299.878906 171.914062 299.96875 172.816406 C 300.058594 173.722656 300.101562 174.628906 300.101562 175.539062 Z M 300.101562 175.539062 " fill-opacity="1" fill-rule="nonzero"/></g><g clip-path="url(#395ae45747)"><path fill="#050119" d="M 300.125 194.902344 C 300.125 195.539062 300.09375 196.175781 300.03125 196.8125 C 299.96875 197.449219 299.875 198.078125 299.75 198.707031 C 299.625 199.332031 299.46875 199.949219 299.285156 200.5625 C 299.097656 201.171875 298.882812 201.773438 298.640625 202.363281 C 298.394531 202.953125 298.121094 203.53125 297.820312 204.09375 C 297.519531 204.65625 297.191406 205.203125 296.839844 205.734375 C 296.484375 206.265625 296.101562 206.777344 295.699219 207.273438 C 295.292969 207.765625 294.863281 208.238281 294.414062 208.691406 C 293.960938 209.140625 293.488281 209.570312 292.996094 209.976562 C 292.5 210.378906 291.988281 210.761719 291.457031 211.113281 C 290.925781 211.46875 290.378906 211.796875 289.816406 212.097656 C 289.253906 212.398438 288.675781 212.671875 288.085938 212.917969 C 287.496094 213.160156 286.894531 213.375 286.285156 213.5625 C 285.675781 213.746094 285.054688 213.902344 284.429688 214.027344 C 283.800781 214.152344 283.171875 214.246094 282.535156 214.308594 C 281.898438 214.371094 281.261719 214.402344 280.625 214.402344 C 279.984375 214.402344 279.347656 214.371094 278.714844 214.308594 C 278.078125 214.246094 277.445312 214.152344 276.820312 214.027344 C 276.195312 213.902344 275.574219 213.746094 274.964844 213.5625 C 274.351562 213.375 273.753906 213.160156 273.160156 212.917969 C 272.570312 212.671875 271.996094 212.398438 271.433594 212.097656 C 270.867188 211.796875 270.320312 211.46875 269.789062 211.113281 C 269.261719 210.761719 268.746094 210.378906 268.253906 209.976562 C 267.761719 209.570312 267.289062 209.140625 266.835938 208.691406 C 266.382812 208.238281 265.957031 207.765625 265.550781 207.273438 C 265.144531 206.777344 264.765625 206.265625 264.410156 205.734375 C 264.054688 205.203125 263.726562 204.65625 263.425781 204.09375 C 263.125 203.53125 262.851562 202.953125 262.609375 202.363281 C 262.363281 201.773438 262.148438 201.171875 261.964844 200.5625 C 261.777344 199.949219 261.625 199.332031 261.5 198.707031 C 261.375 198.078125 261.28125 197.449219 261.21875 196.8125 C 261.15625 196.175781 261.125 195.539062 261.125 194.902344 C 261.125 194.261719 261.15625 193.625 261.21875 192.988281 C 261.28125 192.355469 261.375 191.722656 261.5 191.097656 C 261.625 190.46875 261.777344 189.851562 261.964844 189.242188 C 262.148438 188.628906 262.363281 188.027344 262.609375 187.4375 C 262.851562 186.847656 263.125 186.273438 263.425781 185.707031 C 263.726562 185.144531 264.054688 184.597656 264.410156 184.066406 C 264.765625 183.535156 265.144531 183.023438 265.550781 182.53125 C 265.957031 182.035156 266.382812 181.5625 266.835938 181.113281 C 267.289062 180.660156 267.761719 180.234375 268.253906 179.828125 C 268.746094 179.421875 269.261719 179.042969 269.789062 178.6875 C 270.320312 178.332031 270.867188 178.003906 271.433594 177.703125 C 271.996094 177.402344 272.570312 177.128906 273.160156 176.886719 C 273.753906 176.640625 274.351562 176.425781 274.964844 176.242188 C 275.574219 176.054688 276.195312 175.898438 276.820312 175.777344 C 277.445312 175.652344 278.078125 175.558594 278.714844 175.496094 C 279.347656 175.433594 279.984375 175.402344 280.625 175.402344 C 281.261719 175.402344 281.898438 175.433594 282.535156 175.496094 C 283.171875 175.558594 283.800781 175.652344 284.429688 175.777344 C 285.054688 175.898438 285.675781 176.054688 286.285156 176.242188 C 286.894531 176.425781 287.496094 176.640625 288.085938 176.886719 C 288.675781 177.128906 289.253906 177.402344 289.816406 177.703125 C 290.378906 178.003906 290.925781 178.332031 291.457031 178.6875 C 291.988281 179.042969 292.5 179.421875 292.996094 179.828125 C 293.488281 180.234375 293.960938 180.660156 294.414062 181.113281 C 294.863281 181.5625 295.292969 182.035156 295.699219 182.53125 C 296.101562 183.023438 296.484375 183.535156 296.839844 184.066406 C 297.191406 184.597656 297.519531 185.144531 297.820312 185.707031 C 298.121094 186.273438 298.394531 186.847656 298.640625 187.4375 C 298.882812 188.027344 299.097656 188.628906 299.285156 189.242188 C 299.46875 189.851562 299.625 190.46875 299.75 191.097656 C 299.875 191.722656 299.96875 192.355469 300.03125 192.988281 C 300.09375 193.625 300.125 194.261719 300.125 194.902344 Z M 300.125 194.902344 " fill-opacity="1" fill-rule="nonzero"/></g></svg>