<svg xmlns="http://www.w3.org/2000/svg" xmlns:xlink="http://www.w3.org/1999/xlink" width="500" zoomAndPan="magnify" viewBox="0 0 375 374.999991" height="500" preserveAspectRatio="xMidYMid meet" version="1.0"><defs><clipPath id="861c1c6315"><path d="M 30.167969 0 L 126.507812 0 L 126.507812 96.339844 L 30.167969 96.339844 Z M 30.167969 0 " clip-rule="nonzero"/></clipPath><clipPath id="e4324f75d7"><path d="M 78.335938 0 C 51.734375 0 30.167969 21.566406 30.167969 48.171875 C 30.167969 74.773438 51.734375 96.339844 78.335938 96.339844 C 104.941406 96.339844 126.507812 74.773438 126.507812 48.171875 C 126.507812 21.566406 104.941406 0 78.335938 0 " clip-rule="nonzero"/></clipPath><clipPath id="374a313d9e"><path d="M 248.492188 0 L 344.832031 0 L 344.832031 96.339844 L 248.492188 96.339844 Z M 248.492188 0 " clip-rule="nonzero"/></clipPath><clipPath id="48f9b48d48"><path d="M 296.664062 0 C 270.058594 0 248.492188 21.566406 248.492188 48.171875 C 248.492188 74.773438 270.058594 96.339844 296.664062 96.339844 C 323.265625 96.339844 344.832031 74.773438 344.832031 48.171875 C 344.832031 21.566406 323.265625 0 296.664062 0 " clip-rule="nonzero"/></clipPath><clipPath id="dc5d0fd3e2"><path d="M 34.691406 24.984375 L 341 24.984375 L 341 278.792969 L 34.691406 278.792969 Z M 34.691406 24.984375 " clip-rule="nonzero"/></clipPath><clipPath id="2b210d4fc9"><path d="M 187.5 24.984375 C 103.105469 24.984375 34.691406 81.65625 34.691406 151.5625 C 34.691406 221.46875 103.105469 278.136719 187.5 278.136719 C 271.894531 278.136719 340.308594 221.46875 340.308594 151.5625 C 340.308594 81.65625 271.894531 24.984375 187.5 24.984375 " clip-rule="nonzero"/></clipPath><clipPath id="f91ae46129"><path d="M 221 77 L 302 77 L 302 192 L 221 192 Z M 221 77 " clip-rule="nonzero"/></clipPath><clipPath id="c134ea1651"><path d="M 209.800781 88.53125 L 283.875 68.753906 L 313.878906 181.148438 L 239.800781 200.921875 Z M 209.800781 88.53125 " clip-rule="nonzero"/></clipPath><clipPath id="9957c2cf84"><path d="M 246.550781 78.71875 C 226.253906 84.136719 216.464844 113.496094 224.683594 144.289062 C 232.90625 175.085938 256.023438 195.660156 276.320312 190.242188 C 296.617188 184.824219 306.40625 155.464844 298.1875 124.667969 C 289.964844 93.875 266.847656 73.300781 246.550781 78.71875 " clip-rule="nonzero"/></clipPath><clipPath id="90a35bd26f"><path d="M 74 77 L 155 77 L 155 192 L 74 192 Z M 74 77 " clip-rule="nonzero"/></clipPath><clipPath id="c488d07c9d"><path d="M 92.785156 68.808594 L 166.8125 88.757812 L 136.546875 201.078125 L 62.519531 181.132812 Z M 92.785156 68.808594 " clip-rule="nonzero"/></clipPath><clipPath id="0c02488278"><path d="M 129.511719 78.707031 C 109.226562 73.238281 86.0625 93.757812 77.769531 124.535156 C 69.476562 155.3125 79.195312 184.691406 99.480469 190.15625 C 119.765625 195.625 142.933594 175.105469 151.226562 144.328125 C 159.519531 113.550781 149.796875 84.171875 129.511719 78.707031 " clip-rule="nonzero"/></clipPath><clipPath id="6403d700b9"><path d="M 159.59375 171.457031 L 215.902344 171.457031 L 215.902344 212 L 159.59375 212 Z M 159.59375 171.457031 " clip-rule="nonzero"/></clipPath><clipPath id="f4b8050ec6"><path d="M 187.5 171.457031 C 172.089844 171.457031 159.59375 180.496094 159.59375 191.644531 C 159.59375 202.796875 172.089844 211.835938 187.5 211.835938 C 202.910156 211.835938 215.40625 202.796875 215.40625 191.644531 C 215.40625 180.496094 202.910156 171.457031 187.5 171.457031 " clip-rule="nonzero"/></clipPath><clipPath id="02f6e78af0"><path d="M 248.492188 229.761719 L 338 229.761719 L 338 375 L 248.492188 375 Z M 248.492188 229.761719 " clip-rule="nonzero"/></clipPath><clipPath id="96b35b9c5d"><path d="M 252.242188 229.761719 L 333.808594 229.761719 C 334.804688 229.761719 335.757812 230.15625 336.460938 230.859375 C 337.164062 231.5625 337.558594 232.515625 337.558594 233.511719 L 337.558594 371.25 C 337.558594 372.246094 337.164062 373.199219 336.460938 373.902344 C 335.757812 374.605469 334.804688 375 333.808594 375 L 252.242188 375 C 251.25 375 250.292969 374.605469 249.589844 373.902344 C 248.886719 373.199219 248.492188 372.246094 248.492188 371.25 L 248.492188 233.511719 C 248.492188 232.515625 248.886719 231.5625 249.589844 230.859375 C 250.292969 230.15625 251.25 229.761719 252.242188 229.761719 " clip-rule="nonzero"/></clipPath><clipPath id="6f9c3c7bb9"><path d="M 309.730469 239.324219 L 328.042969 239.324219 L 328.042969 257.636719 L 309.730469 257.636719 Z M 309.730469 239.324219 " clip-rule="nonzero"/></clipPath><clipPath id="974f2f3bfe"><path d="M 318.886719 239.324219 C 313.828125 239.324219 309.730469 243.421875 309.730469 248.480469 C 309.730469 253.535156 313.828125 257.636719 318.886719 257.636719 C 323.945312 257.636719 328.042969 253.535156 328.042969 248.480469 C 328.042969 243.421875 323.945312 239.324219 318.886719 239.324219 " clip-rule="nonzero"/></clipPath><clipPath id="1c8ab705b0"><path d="M 309.730469 260.570312 L 328.042969 260.570312 L 328.042969 278.886719 L 309.730469 278.886719 Z M 309.730469 260.570312 " clip-rule="nonzero"/></clipPath><clipPath id="713e153909"><path d="M 318.886719 260.570312 C 313.828125 260.570312 309.730469 264.671875 309.730469 269.726562 C 309.730469 274.785156 313.828125 278.886719 318.886719 278.886719 C 323.945312 278.886719 328.042969 274.785156 328.042969 269.726562 C 328.042969 264.671875 323.945312 260.570312 318.886719 260.570312 " clip-rule="nonzero"/></clipPath><clipPath id="014c87dee7"><path d="M 166.242188 257.429688 L 208.542969 257.429688 L 208.542969 270 L 166.242188 270 Z M 166.242188 257.429688 " clip-rule="nonzero"/></clipPath><clipPath id="fad0e8857e"><path d="M 187.347656 257.429688 C 175.691406 257.429688 166.242188 260.183594 166.242188 263.578125 C 166.242188 266.976562 175.691406 269.726562 187.347656 269.726562 C 199.007812 269.726562 208.457031 266.976562 208.457031 263.578125 C 208.457031 260.183594 199.007812 257.429688 187.347656 257.429688 " clip-rule="nonzero"/></clipPath></defs><g clip-path="url(#861c1c6315)"><g clip-path="url(#e4324f75d7)"><path fill="#050119" d="M 30.167969 0 L 126.507812 0 L 126.507812 96.339844 L 30.167969 96.339844 Z M 30.167969 0 " fill-opacity="1" fill-rule="nonzero"/></g></g><g clip-path="url(#374a313d9e)"><g clip-path="url(#48f9b48d48)"><path fill="#050119" d="M 248.492188 0 L 344.832031 0 L 344.832031 96.339844 L 248.492188 96.339844 Z M 248.492188 0 " fill-opacity="1" fill-rule="nonzero"/></g></g><g clip-path="url(#dc5d0fd3e2)"><g clip-path="url(#2b210d4fc9)"><path fill="#f4f4f4" d="M 34.691406 24.984375 L 341.375 24.984375 L 341.375 278.792969 L 34.691406 278.792969 Z M 34.691406 24.984375 " fill-opacity="1" fill-rule="nonzero"/></g></g><g clip-path="url(#f91ae46129)"><g clip-path="url(#c134ea1651)"><g clip-path="url(#9957c2cf84)"><path fill="#050119" d="M 209.800781 88.53125 L 283.875 68.753906 L 313.878906 181.148438 L 239.800781 200.921875 Z M 209.800781 88.53125 " fill-opacity="1" fill-rule="nonzero"/></g></g></g><g clip-path="url(#90a35bd26f)"><g clip-path="url(#c488d07c9d)"><g clip-path="url(#0c02488278)"><path fill="#050119" d="M 92.785156 68.808594 L 166.8125 88.757812 L 136.546875 201.078125 L 62.519531 181.132812 Z M 92.785156 68.808594 " fill-opacity="1" fill-rule="nonzero"/></g></g></g><g clip-path="url(#6403d700b9)"><g clip-path="url(#f4b8050ec6)"><path fill="#050119" d="M 159.59375 171.457031 L 215.300781 171.457031 L 215.300781 211.589844 L 159.59375 211.589844 Z M 159.59375 171.457031 " fill-opacity="1" fill-rule="nonzero"/></g></g><g clip-path="url(#02f6e78af0)"><g clip-path="url(#96b35b9c5d)"><path fill="#050119" d="M 248.492188 229.761719 L 339 229.761719 L 339 375.21875 L 248.492188 375.21875 Z M 248.492188 229.761719 " fill-opacity="1" fill-rule="nonzero"/></g></g><g clip-path="url(#6f9c3c7bb9)"><g clip-path="url(#974f2f3bfe)"><path fill="#f4f4f4" d="M 309.730469 239.324219 L 328.042969 239.324219 L 328.042969 257.636719 L 309.730469 257.636719 Z M 309.730469 239.324219 " fill-opacity="1" fill-rule="nonzero"/></g></g><g clip-path="url(#1c8ab705b0)"><g clip-path="url(#713e153909)"><path fill="#f4f4f4" d="M 309.730469 260.570312 L 328.042969 260.570312 L 328.042969 278.886719 L 309.730469 278.886719 Z M 309.730469 260.570312 " fill-opacity="1" fill-rule="nonzero"/></g></g><path stroke-linecap="butt" transform="matrix(0.708847, -0.264772, 0.262434, 0.702587, 199.656759, 261.454231)" fill="none" stroke-linejoin="miter" d="M 0.00131408 3.001219 L 22.8101 3.001321 " stroke="#050119" stroke-width="6" stroke-opacity="1" stroke-miterlimit="4"/><path stroke-linecap="butt" transform="matrix(0.709895, 0.261949, -0.259635, 0.703626, 158.99626, 255.528938)" fill="none" stroke-linejoin="miter" d="M 0.00210113 3.000367 L 22.809387 2.997976 " stroke="#050119" stroke-width="6" stroke-opacity="1" stroke-miterlimit="4"/><g clip-path="url(#014c87dee7)"><g clip-path="url(#fad0e8857e)"><path fill="#6b1212" d="M 166.242188 257.429688 L 208.542969 257.429688 L 208.542969 270.121094 L 166.242188 270.121094 Z M 166.242188 257.429688 " fill-opacity="1" fill-rule="nonzero"/></g></g></svg>