<svg xmlns="http://www.w3.org/2000/svg" xmlns:xlink="http://www.w3.org/1999/xlink" width="500" zoomAndPan="magnify" viewBox="0 0 375 374.999991" height="500" preserveAspectRatio="xMidYMid meet" version="1.0"><defs><clipPath id="53492e8df8"><path d="M 71.625 49.40625 L 142.578125 49.40625 L 142.578125 120.363281 L 71.625 120.363281 Z M 71.625 49.40625 " clip-rule="nonzero"/></clipPath><clipPath id="3389f4d6f5"><path d="M 107.101562 49.40625 C 87.507812 49.40625 71.625 65.289062 71.625 84.882812 C 71.625 104.476562 87.507812 120.363281 107.101562 120.363281 C 126.695312 120.363281 142.578125 104.476562 142.578125 84.882812 C 142.578125 65.289062 126.695312 49.40625 107.101562 49.40625 " clip-rule="nonzero"/></clipPath><clipPath id="c7c29d8319"><path d="M 232.421875 49.40625 L 303.375 49.40625 L 303.375 120.363281 L 232.421875 120.363281 Z M 232.421875 49.40625 " clip-rule="nonzero"/></clipPath><clipPath id="a697249be8"><path d="M 267.898438 49.40625 C 248.304688 49.40625 232.421875 65.289062 232.421875 84.882812 C 232.421875 104.476562 248.304688 120.363281 267.898438 120.363281 C 287.492188 120.363281 303.375 104.476562 303.375 84.882812 C 303.375 65.289062 287.492188 49.40625 267.898438 49.40625 " clip-rule="nonzero"/></clipPath><clipPath id="f2b6cf3717"><path d="M 74.957031 67.808594 L 300.828125 67.808594 L 300.828125 254.738281 L 74.957031 254.738281 Z M 74.957031 67.808594 " clip-rule="nonzero"/></clipPath><clipPath id="edc6b1fa67"><path d="M 187.5 67.808594 C 125.34375 67.808594 74.957031 109.546875 74.957031 161.03125 C 74.957031 212.515625 125.34375 254.253906 187.5 254.253906 C 249.65625 254.253906 300.042969 212.515625 300.042969 161.03125 C 300.042969 109.546875 249.65625 67.808594 187.5 67.808594 " clip-rule="nonzero"/></clipPath><clipPath id="cf9d8698bb"><path d="M 212 106 L 272 106 L 272 191 L 212 191 Z M 212 106 " clip-rule="nonzero"/></clipPath><clipPath id="9cac9faf90"><path d="M 203.921875 114.609375 L 258.480469 100.046875 L 280.578125 182.824219 L 226.019531 197.386719 Z M 203.921875 114.609375 " clip-rule="nonzero"/></clipPath><clipPath id="46e18f069c"><path d="M 230.992188 107.382812 C 216.042969 111.375 208.832031 132.996094 214.886719 155.675781 C 220.941406 178.359375 237.964844 193.511719 252.914062 189.519531 C 267.863281 185.527344 275.074219 163.90625 269.019531 141.226562 C 262.964844 118.546875 245.941406 103.394531 230.992188 107.382812 " clip-rule="nonzero"/></clipPath><clipPath id="e6c11e03b7"><path d="M 104 106 L 163 106 L 163 191 L 104 191 Z M 104 106 " clip-rule="nonzero"/></clipPath><clipPath id="17ab0fb3f3"><path d="M 117.742188 100.082031 L 172.265625 114.777344 L 149.976562 197.5 L 95.453125 182.808594 Z M 117.742188 100.082031 " clip-rule="nonzero"/></clipPath><clipPath id="4863aac544"><path d="M 144.792969 107.371094 C 129.851562 103.347656 112.789062 118.460938 106.683594 141.125 C 100.574219 163.792969 107.734375 185.429688 122.675781 189.457031 C 137.613281 193.480469 154.675781 178.371094 160.785156 155.703125 C 166.890625 133.035156 159.730469 111.398438 144.792969 107.371094 " clip-rule="nonzero"/></clipPath><clipPath id="5ca00fa996"><path d="M 166.949219 175.683594 L 208 175.683594 L 208 205.683594 L 166.949219 205.683594 Z M 166.949219 175.683594 " clip-rule="nonzero"/></clipPath><clipPath id="3731342953"><path d="M 187.5 175.683594 C 176.148438 175.683594 166.949219 182.34375 166.949219 190.554688 C 166.949219 198.765625 176.148438 205.421875 187.5 205.421875 C 198.851562 205.421875 208.050781 198.765625 208.050781 190.554688 C 208.050781 182.34375 198.851562 175.683594 187.5 175.683594 " clip-rule="nonzero"/></clipPath><clipPath id="386c8652da"><path d="M 232.421875 218.625 L 299 218.625 L 299 325.753906 L 232.421875 325.753906 Z M 232.421875 218.625 " clip-rule="nonzero"/></clipPath><clipPath id="348d5ae9cb"><path d="M 236.171875 218.625 L 294.269531 218.625 C 296.339844 218.625 298.019531 220.304688 298.019531 222.375 L 298.019531 321.84375 C 298.019531 323.914062 296.339844 325.59375 294.269531 325.59375 L 236.171875 325.59375 C 234.101562 325.59375 232.421875 323.914062 232.421875 321.84375 L 232.421875 222.375 C 232.421875 220.304688 234.101562 218.625 236.171875 218.625 " clip-rule="nonzero"/></clipPath><clipPath id="82666dd58e"><path d="M 277.523438 225.667969 L 291.011719 225.667969 L 291.011719 239.15625 L 277.523438 239.15625 Z M 277.523438 225.667969 " clip-rule="nonzero"/></clipPath><clipPath id="aff83913a1"><path d="M 284.265625 225.667969 C 280.542969 225.667969 277.523438 228.6875 277.523438 232.410156 C 277.523438 236.136719 280.542969 239.15625 284.265625 239.15625 C 287.992188 239.15625 291.011719 236.136719 291.011719 232.410156 C 291.011719 228.6875 287.992188 225.667969 284.265625 225.667969 " clip-rule="nonzero"/></clipPath><clipPath id="09462b3f8b"><path d="M 277.523438 241.316406 L 291.011719 241.316406 L 291.011719 254.804688 L 277.523438 254.804688 Z M 277.523438 241.316406 " clip-rule="nonzero"/></clipPath><clipPath id="ae08a59e0c"><path d="M 284.265625 241.316406 C 280.542969 241.316406 277.523438 244.335938 277.523438 248.058594 C 277.523438 251.785156 280.542969 254.804688 284.265625 254.804688 C 287.992188 254.804688 291.011719 251.785156 291.011719 248.058594 C 291.011719 244.335938 287.992188 241.316406 284.265625 241.316406 " clip-rule="nonzero"/></clipPath><clipPath id="150bb67d2e"><path d="M 171.84375 239.003906 L 203 239.003906 L 203 248.347656 L 171.84375 248.347656 Z M 171.84375 239.003906 " clip-rule="nonzero"/></clipPath><clipPath id="27b959ba2b"><path d="M 187.390625 239.003906 C 178.804688 239.003906 171.84375 241.03125 171.84375 243.53125 C 171.84375 246.03125 178.804688 248.058594 187.390625 248.058594 C 195.972656 248.058594 202.933594 246.03125 202.933594 243.53125 C 202.933594 241.03125 195.972656 239.003906 187.390625 239.003906 " clip-rule="nonzero"/></clipPath></defs><g clip-path="url(#53492e8df8)"><g clip-path="url(#3389f4d6f5)"><path fill="#050119" d="M 71.625 49.40625 L 142.578125 49.40625 L 142.578125 120.363281 L 71.625 120.363281 Z M 71.625 49.40625 " fill-opacity="1" fill-rule="nonzero"/></g></g><g clip-path="url(#c7c29d8319)"><g clip-path="url(#a697249be8)"><path fill="#050119" d="M 232.421875 49.40625 L 303.375 49.40625 L 303.375 120.363281 L 232.421875 120.363281 Z M 232.421875 49.40625 " fill-opacity="1" fill-rule="nonzero"/></g></g><g clip-path="url(#f2b6cf3717)"><g clip-path="url(#edc6b1fa67)"><path fill="#f4f4f4" d="M 74.957031 67.808594 L 300.828125 67.808594 L 300.828125 254.738281 L 74.957031 254.738281 Z M 74.957031 67.808594 " fill-opacity="1" fill-rule="nonzero"/></g></g><g clip-path="url(#cf9d8698bb)"><g clip-path="url(#9cac9faf90)"><g clip-path="url(#46e18f069c)"><path fill="#050119" d="M 203.921875 114.609375 L 258.480469 100.046875 L 280.578125 182.824219 L 226.019531 197.386719 Z M 203.921875 114.609375 " fill-opacity="1" fill-rule="nonzero"/></g></g></g><g clip-path="url(#e6c11e03b7)"><g clip-path="url(#17ab0fb3f3)"><g clip-path="url(#4863aac544)"><path fill="#050119" d="M 117.742188 100.082031 L 172.265625 114.777344 L 149.976562 197.5 L 95.453125 182.808594 Z M 117.742188 100.082031 " fill-opacity="1" fill-rule="nonzero"/></g></g></g><g clip-path="url(#5ca00fa996)"><g clip-path="url(#3731342953)"><path fill="#050119" d="M 166.949219 175.683594 L 207.976562 175.683594 L 207.976562 205.242188 L 166.949219 205.242188 Z M 166.949219 175.683594 " fill-opacity="1" fill-rule="nonzero"/></g></g><g clip-path="url(#386c8652da)"><g clip-path="url(#348d5ae9cb)"><path fill="#050119" d="M 232.421875 218.625 L 299.078125 218.625 L 299.078125 325.753906 L 232.421875 325.753906 Z M 232.421875 218.625 " fill-opacity="1" fill-rule="nonzero"/></g></g><g clip-path="url(#82666dd58e)"><g clip-path="url(#aff83913a1)"><path fill="#f4f4f4" d="M 277.523438 225.667969 L 291.011719 225.667969 L 291.011719 239.15625 L 277.523438 239.15625 Z M 277.523438 225.667969 " fill-opacity="1" fill-rule="nonzero"/></g></g><g clip-path="url(#09462b3f8b)"><g clip-path="url(#ae08a59e0c)"><path fill="#f4f4f4" d="M 277.523438 241.316406 L 291.011719 241.316406 L 291.011719 254.804688 L 277.523438 254.804688 Z M 277.523438 241.316406 " fill-opacity="1" fill-rule="nonzero"/></g></g><path stroke-linecap="butt" transform="matrix(0.711083, -0.265608, 0.262434, 0.702587, 196.508545, 242.115131)" fill="none" stroke-linejoin="miter" d="M 0.0025077 1.999848 L 16.796006 1.999197 " stroke="#050119" stroke-width="4" stroke-opacity="1" stroke-miterlimit="4"/><path stroke-linecap="butt" transform="matrix(0.712135, 0.262775, -0.259635, 0.703626, 166.452884, 237.749502)" fill="none" stroke-linejoin="miter" d="M -0.000254039 1.999379 L 16.795871 2.000032 " stroke="#050119" stroke-width="4" stroke-opacity="1" stroke-miterlimit="4"/><g clip-path="url(#150bb67d2e)"><g clip-path="url(#27b959ba2b)"><path fill="#6b1212" d="M 171.84375 239.003906 L 203 239.003906 L 203 248.347656 L 171.84375 248.347656 Z M 171.84375 239.003906 " fill-opacity="1" fill-rule="nonzero"/></g></g></svg>